# Blender 3.5.1
# www.blender.org
mtllib Asset_02_bone_v001.mtl
o bone_low
v -0.000303 1.113023 -0.271943
v 0.173756 1.113023 -0.154159
v 0.173756 1.113023 0.159055
v -0.000303 1.113023 0.276910
v -0.175371 1.113023 0.155685
v -0.175371 1.113023 -0.150777
v -0.000379 0.000000 -0.155751
v 0.092291 -0.000000 -0.087843
v 0.092291 -0.000000 0.092750
v -0.000380 -0.000000 0.160708
v -0.093753 0.000000 0.090808
v -0.093753 0.000000 -0.085893
v -0.237964 1.113023 0.002484
v -0.137410 0.000000 0.002479
v 0.237357 1.113023 0.002483
v 0.136651 -0.000000 0.002478
v 0.098051 1.437410 -0.232987
v -0.000330 1.437410 -0.294810
v 0.094507 1.437410 -0.162537
v -0.099508 1.437410 -0.228798
v -0.095166 1.437410 -0.162537
v -0.000330 1.417439 0.307889
v 0.098051 1.417439 0.246935
v -0.099508 1.417439 0.242595
v -0.095166 1.417439 0.175616
v 0.094508 1.417439 0.175616
v 0.173756 1.340506 -0.282613
v -0.000303 1.340506 -0.415933
v 0.237357 1.340506 -0.078619
v -0.175371 1.340506 -0.276462
v -0.237964 1.340506 -0.078619
v -0.000303 1.320535 0.404082
v 0.173756 1.320535 0.275214
v -0.175371 1.320535 0.269341
v -0.237964 1.320535 0.078861
v 0.237357 1.320535 0.078862
v -0.000303 1.226765 -0.363024
v 0.173756 1.226765 -0.222016
v -0.175371 1.226765 -0.217172
v -0.237964 1.226765 -0.025344
v 0.237357 1.226765 -0.025344
v 0.173756 1.216779 0.233214
v -0.000303 1.216779 0.380447
v -0.175371 1.216779 0.228246
v -0.237964 1.216779 0.028897
v 0.237357 1.216779 0.028897
v -0.000303 0.988601 -0.239072
v 0.169151 0.988601 -0.135401
v 0.169151 0.988601 0.140296
v -0.000303 0.988601 0.244039
v -0.170766 0.988601 0.137331
v -0.170766 0.988601 -0.132423
v -0.233359 0.988601 0.002483
v 0.232752 0.988601 0.002483
v -0.000303 1.113023 0.002643
v -0.000303 1.340506 -0.035913
v -0.000303 1.320535 0.038953
v -0.000329 1.437410 -0.097530
v -0.000329 1.417439 0.107426
v -0.000303 1.226765 -0.010586
v -0.000303 1.216779 0.015200
v 0.114125 0.830541 -0.096537
v 0.114126 0.830541 0.101443
v -0.000370 0.830541 0.175943
v -0.115607 0.830541 0.099314
v -0.115607 0.830541 -0.094399
v -0.161597 0.830541 0.002479
v 0.160857 0.830541 0.002479
v -0.000370 0.830541 -0.170985
v -0.000303 -1.113023 -0.271943
v 0.173756 -1.113023 -0.154159
v 0.173756 -1.113023 0.159055
v -0.000303 -1.113023 0.276910
v -0.175371 -1.113023 0.155685
v -0.175371 -1.113023 -0.150777
v -0.237964 -1.113023 0.002484
v 0.237357 -1.113023 0.002483
v 0.098050 -1.437410 -0.232987
v -0.000329 -1.437410 -0.294810
v 0.094508 -1.437410 -0.162537
v -0.099508 -1.437410 -0.228798
v -0.095166 -1.437410 -0.162537
v -0.000329 -1.417439 0.307889
v 0.098051 -1.417439 0.246935
v -0.099508 -1.417439 0.242596
v -0.095166 -1.417439 0.175616
v 0.094507 -1.417439 0.175616
v 0.173756 -1.340506 -0.282613
v -0.000303 -1.340506 -0.415933
v 0.237357 -1.340506 -0.078619
v -0.175371 -1.340506 -0.276462
v -0.237964 -1.340506 -0.078619
v -0.000303 -1.320535 0.404082
v 0.173756 -1.320535 0.275215
v -0.175371 -1.320535 0.269341
v -0.237964 -1.320535 0.078861
v 0.237357 -1.320535 0.078862
v -0.000303 -1.226765 -0.363024
v 0.173756 -1.226765 -0.222017
v -0.175371 -1.226765 -0.217172
v -0.237964 -1.226765 -0.025344
v 0.237357 -1.226765 -0.025344
v 0.173756 -1.216779 0.233214
v -0.000303 -1.216779 0.380447
v -0.175371 -1.216779 0.228246
v -0.237964 -1.216779 0.028897
v 0.237357 -1.216779 0.028898
v -0.000303 -0.988601 -0.239072
v 0.169151 -0.988601 -0.135401
v 0.169151 -0.988601 0.140296
v -0.000303 -0.988601 0.244039
v -0.170766 -0.988601 0.137331
v -0.170766 -0.988601 -0.132423
v -0.233358 -0.988601 0.002483
v 0.232752 -0.988601 0.002484
v -0.000303 -1.113023 0.002643
v -0.000303 -1.340506 -0.035913
v -0.000303 -1.320535 0.038953
v -0.000330 -1.437410 -0.097530
v -0.000329 -1.417439 0.107426
v -0.000303 -1.226765 -0.010586
v -0.000303 -1.216779 0.015200
v 0.114126 -0.830541 -0.096537
v 0.114126 -0.830541 0.101443
v -0.000370 -0.830541 0.175943
v -0.115607 -0.830541 0.099314
v -0.115607 -0.830541 -0.094399
v -0.161598 -0.830541 0.002479
v 0.160857 -0.830541 0.002479
v -0.000370 -0.830541 -0.170985
vn -0.0049 -0.3030 -0.9530
vn -0.0063 -0.4280 -0.9038
vn 0.7878 -0.2149 -0.5773
vn 0.7408 -0.2507 -0.6232
vn 0.9717 -0.2362 0.0001
vn 1.0000 -0.0061 -0.0018
vn 0.7910 -0.2346 0.5651
vn 0.7408 -0.2506 0.6232
vn -0.0064 -0.4830 0.8756
vn -0.0048 -0.3030 0.9530
vn -0.7931 -0.2314 0.5634
vn -0.7434 -0.2489 0.6208
vn -0.0070 -0.4513 0.8923
vn 0.7752 -0.3143 0.5480
vn 0.7846 0.2540 0.5656
vn -0.0078 0.1812 0.9834
vn -0.9719 -0.2355 0.0001
vn -1.0000 -0.0052 -0.0019
vn -0.7900 -0.2118 -0.5754
vn -0.7434 -0.2490 -0.6208
vn 0.7798 -0.3113 -0.5432
vn -0.0074 -0.4961 -0.8683
vn -0.0077 0.1618 -0.9868
vn 0.7796 0.2344 -0.5808
vn -0.7835 -0.3063 -0.5406
vn -0.7853 0.2356 -0.5726
vn -0.8177 0.1011 0.5667
vn -0.8295 0.4155 0.3732
vn -0.0000 0.2521 0.9677
vn 0.8169 0.1003 0.5680
vn 0.8290 0.4154 0.3744
vn -0.0000 0.5179 0.8554
vn -0.0074 0.8949 -0.4462
vn -0.3939 0.8834 -0.2537
vn -0.3246 0.9254 0.1955
vn -0.0000 0.8664 0.4994
vn -0.7792 -0.3094 0.5451
vn -0.7899 0.2547 0.5579
vn -0.0000 0.2598 -0.9657
vn -0.8150 0.1045 -0.5700
vn -0.8229 0.4290 -0.3726
vn -0.0000 0.5417 -0.8406
vn 0.8143 0.1036 -0.5712
vn 0.8224 0.4289 -0.3737
vn 0.3896 0.8847 -0.2559
vn 0.3260 0.9249 0.1957
vn 0.4064 0.8638 0.2979
vn -0.0078 0.8621 0.5068
vn -0.4112 0.8627 0.2944
vn -0.3282 0.9292 -0.1698
vn 0.3296 0.9287 -0.1700
vn -0.0000 0.8789 -0.4770
vn -0.0000 1.0000 0.0030
vn 0.7349 -0.2131 -0.6438
vn 0.9704 -0.2416 0.0001
vn -0.7376 -0.2116 0.6413
vn -0.9705 -0.2412 0.0001
vn -0.7375 -0.2116 -0.6413
vn -0.0054 -0.2388 -0.9711
vn -0.0053 -0.2388 0.9710
vn 0.7350 -0.2130 0.6438
vn -0.0050 -0.0000 -1.0000
vn 0.7583 -0.0000 -0.6519
vn 1.0000 -0.0000 0.0001
vn 0.7584 -0.0000 0.6518
vn -0.0050 -0.0000 1.0000
vn -0.7609 -0.0000 0.6489
vn -1.0000 -0.0000 0.0001
vn -0.7608 -0.0000 -0.6489
vn -0.0049 0.3030 -0.9530
vn 0.7408 0.2507 -0.6232
vn 0.7878 0.2149 -0.5773
vn -0.0063 0.4280 -0.9038
vn 0.9717 0.2362 0.0001
vn 0.7408 0.2506 0.6232
vn 0.7910 0.2346 0.5651
vn 1.0000 0.0061 -0.0018
vn -0.0048 0.3030 0.9530
vn -0.0064 0.4830 0.8756
vn -0.7434 0.2489 0.6208
vn -0.7931 0.2314 0.5634
vn -0.0070 0.4513 0.8923
vn -0.0078 -0.1812 0.9834
vn 0.7846 -0.2540 0.5656
vn 0.7752 0.3143 0.5480
vn -0.9719 0.2355 0.0001
vn -0.7434 0.2490 -0.6208
vn -0.7900 0.2118 -0.5754
vn -1.0000 0.0052 -0.0019
vn 0.7798 0.3113 -0.5432
vn 0.7796 -0.2344 -0.5808
vn -0.0077 -0.1618 -0.9868
vn -0.0074 0.4961 -0.8683
vn -0.7853 -0.2356 -0.5726
vn -0.7835 0.3063 -0.5406
vn -0.8295 -0.4155 0.3732
vn -0.8177 -0.1011 0.5667
vn -0.0000 -0.2521 0.9677
vn -0.0000 -0.5179 0.8554
vn 0.8290 -0.4154 0.3744
vn 0.8169 -0.1003 0.5680
vn -0.0074 -0.8949 -0.4462
vn -0.0000 -0.8664 0.4994
vn -0.3246 -0.9254 0.1955
vn -0.3939 -0.8834 -0.2537
vn -0.7792 0.3094 0.5451
vn -0.7899 -0.2547 0.5579
vn -0.0000 -0.2598 -0.9657
vn -0.0000 -0.5417 -0.8406
vn -0.8229 -0.4290 -0.3726
vn -0.8150 -0.1045 -0.5700
vn 0.8224 -0.4289 -0.3737
vn 0.8143 -0.1036 -0.5712
vn 0.3896 -0.8847 -0.2559
vn 0.3260 -0.9249 0.1957
vn 0.4064 -0.8638 0.2979
vn -0.0078 -0.8621 0.5068
vn -0.4112 -0.8627 0.2944
vn -0.3282 -0.9292 -0.1698
vn 0.3296 -0.9287 -0.1700
vn -0.0000 -0.8789 -0.4770
vn -0.0000 -1.0000 0.0030
vn 0.7349 0.2131 -0.6438
vn 0.9704 0.2416 0.0001
vn -0.7376 0.2116 0.6413
vn -0.9705 0.2412 0.0001
vn -0.7375 0.2116 -0.6413
vn -0.0054 0.2388 -0.9711
vn -0.0053 0.2388 0.9710
vn 0.7350 0.2130 0.6438
vt 0.239415 0.659623
vt 0.287313 0.737738
vt 0.269776 0.736079
vt 0.150641 0.664717
vt 0.203799 0.734408
vt 0.167863 0.663416
vt 0.186025 0.732784
vt 0.221951 0.661104
vt 0.292952 0.643897
vt 0.245604 0.753167
vt 0.283322 0.642903
vt 0.163885 0.757819
vt 0.173378 0.757014
vt 0.208892 0.640402
vt 0.199111 0.639429
vt 0.235965 0.754074
vt 0.208892 0.664074
vt 0.173378 0.729955
vt 0.153172 0.944669
vt 0.885793 0.312456
vt 0.228005 0.755734
vt 0.191351 0.637835
vt 0.256953 0.733039
vt 0.885793 0.341957
vt 0.137310 0.667658
vt 0.153164 0.914851
vt 0.155761 0.759460
vt 0.275447 0.641188
vt 0.270775 0.845731
vt 0.267083 0.836574
vt 0.276720 0.846493
vt 0.274094 0.829272
vt 0.279571 0.830631
vt 0.166308 0.637835
vt 0.202358 0.760102
vt 0.100882 0.858772
vt 0.156924 0.638447
vt 0.104605 0.849671
vt 0.192482 0.759251
vt 0.107749 0.866164
vt 0.113300 0.864858
vt 0.110631 0.848964
vt 0.274538 0.757502
vt 0.265487 0.851316
vt 0.292952 0.759494
vt 0.245604 0.637835
vt 0.256953 0.834756
vt 0.566493 0.979239
vt 0.259041 0.753447
vt 0.281592 0.859701
vt 0.227005 0.639722
vt 0.271248 0.822211
vt 0.211182 0.643682
vt 0.288735 0.819950
vt 0.869334 0.304085
vt 0.173378 0.643673
vt 0.208892 0.754093
vt 0.155472 0.645213
vt 0.101170 0.843725
vt 0.190343 0.752193
vt 0.106575 0.872898
vt 0.509066 0.930561
vt 0.175561 0.748601
vt 0.123417 0.875462
vt 0.139675 0.649019
vt 0.116729 0.835632
vt 0.138336 0.907071
vt 0.243693 0.648305
vt 0.291210 0.749025
vt 0.272362 0.746868
vt 0.224698 0.650334
vt 0.209248 0.654160
vt 0.877246 0.308976
vt 0.558579 0.984235
vt 0.257279 0.742971
vt 0.877247 0.338478
vt 0.154053 0.654615
vt 0.208634 0.745068
vt 0.173098 0.652677
vt 0.189085 0.742810
vt 0.516002 0.925550
vt 0.173795 0.739037
vt 0.145454 0.941422
vt 0.137762 0.658595
vt 0.145446 0.911604
vt 0.238875 0.670521
vt 0.286820 0.726822
vt 0.270368 0.725442
vt 0.151161 0.675338
vt 0.203231 0.723492
vt 0.167247 0.674311
vt 0.186572 0.722143
vt 0.222573 0.671712
vt 0.174976 0.719689
vt 0.210651 0.674274
vt 0.258605 0.722804
vt 0.138993 0.677873
vt 0.153172 0.929751
vt 0.885789 0.327215
vt 0.566493 0.995445
vt 0.288735 0.840467
vt 0.868270 0.321205
vt 0.508336 0.914575
vt 0.123417 0.854986
vt 0.137310 0.924159
vt 0.283582 0.839539
vt 0.117680 0.855951
vt 0.557887 0.998740
vt 0.876879 0.324546
vt 0.516002 0.911129
vt 0.145096 0.927261
vt 0.273347 0.711364
vt 0.153692 0.689514
vt 0.164834 0.688725
vt 0.200995 0.709087
vt 0.189477 0.708083
vt 0.225254 0.685855
vt 0.216633 0.687687
vt 0.181085 0.706326
vt 0.144894 0.691326
vt 0.264833 0.709475
vt 0.284711 0.712391
vt 0.236552 0.684950
vt 0.239415 0.659623
vt 0.287313 0.737738
vt 0.269776 0.736079
vt 0.150641 0.664717
vt 0.203799 0.734408
vt 0.167863 0.663416
vt 0.186025 0.732784
vt 0.221951 0.661104
vt 0.208892 0.664074
vt 0.173378 0.729955
vt 0.153172 0.944669
vt 0.885793 0.312456
vt 0.256953 0.733039
vt 0.885793 0.341957
vt 0.137310 0.667658
vt 0.153164 0.914851
vt 0.270775 0.845731
vt 0.267083 0.836574
vt 0.276720 0.846493
vt 0.274094 0.829272
vt 0.279571 0.830631
vt 0.166308 0.637835
vt 0.202358 0.760102
vt 0.100882 0.858772
vt 0.156924 0.638447
vt 0.104605 0.849671
vt 0.192482 0.759251
vt 0.107749 0.866164
vt 0.113300 0.864858
vt 0.110631 0.848964
vt 0.274538 0.757502
vt 0.265487 0.851316
vt 0.292952 0.759494
vt 0.245604 0.637835
vt 0.256953 0.834756
vt 0.566493 0.979239
vt 0.259041 0.753447
vt 0.281592 0.859701
vt 0.227005 0.639722
vt 0.271248 0.822211
vt 0.211182 0.643682
vt 0.288735 0.819950
vt 0.869334 0.304085
vt 0.173378 0.643673
vt 0.208892 0.754093
vt 0.155472 0.645213
vt 0.101170 0.843725
vt 0.190343 0.752193
vt 0.106575 0.872898
vt 0.509066 0.930561
vt 0.175561 0.748601
vt 0.123417 0.875462
vt 0.139675 0.649019
vt 0.116729 0.835632
vt 0.138336 0.907071
vt 0.243693 0.648305
vt 0.291210 0.749025
vt 0.272362 0.746868
vt 0.224698 0.650334
vt 0.209248 0.654160
vt 0.877246 0.308976
vt 0.558579 0.984235
vt 0.257279 0.742971
vt 0.877247 0.338478
vt 0.154053 0.654615
vt 0.208634 0.745068
vt 0.173098 0.652677
vt 0.189085 0.742810
vt 0.516002 0.925550
vt 0.173795 0.739037
vt 0.145454 0.941422
vt 0.137762 0.658595
vt 0.145446 0.911604
vt 0.238875 0.670521
vt 0.286820 0.726822
vt 0.270368 0.725442
vt 0.151161 0.675338
vt 0.203231 0.723492
vt 0.167247 0.674311
vt 0.186572 0.722143
vt 0.222573 0.671712
vt 0.174976 0.719689
vt 0.210651 0.674274
vt 0.258605 0.722804
vt 0.138993 0.677873
vt 0.153172 0.929751
vt 0.885789 0.327215
vt 0.566493 0.995445
vt 0.288735 0.840467
vt 0.868270 0.321205
vt 0.508336 0.914575
vt 0.123417 0.854986
vt 0.137310 0.924159
vt 0.283582 0.839539
vt 0.117680 0.855951
vt 0.557887 0.998740
vt 0.876879 0.324546
vt 0.516002 0.911129
vt 0.145096 0.927261
vt 0.273347 0.711364
vt 0.153692 0.689514
vt 0.164834 0.688725
vt 0.200995 0.709087
vt 0.189477 0.708083
vt 0.225254 0.685855
vt 0.216633 0.687687
vt 0.181085 0.706326
vt 0.144894 0.691326
vt 0.264833 0.709475
vt 0.284711 0.712391
vt 0.236552 0.684950
s 1
usemtl Asssetv02
f 47/87/1 1/2/2 2/3/3 48/88/4
f 54/97/5 15/25/6 3/4/7 49/89/8
f 49/89/8 3/4/7 4/6/9 50/91/10
f 50/90/10 4/5/9 5/7/11 51/92/12
f 43/79/13 42/77/14 33/58/15 32/56/16
f 53/95/17 13/17/18 6/8/19 52/93/20
f 52/93/20 6/8/19 1/1/2 47/86/1
f 51/92/12 5/7/11 13/18/18 53/94/17
f 48/88/4 2/3/3 15/23/6 54/96/5
f 38/70/21 37/69/22 28/45/23 27/43/24
f 37/68/22 39/71/25 30/51/26 28/46/23
f 39/71/25 40/72/27 31/53/28 30/51/26
f 60/108/29 41/74/30 29/48/31 56/100/32
f 41/75/30 38/70/21 27/43/24 29/49/31
f 18/30/33 20/32/34 21/33/35 58/106/36
f 44/80/37 43/78/13 32/57/16 34/60/38
f 61/110/39 45/81/40 35/62/41 57/103/42
f 45/82/40 44/80/37 34/60/38 35/63/41
f 42/77/14 46/84/43 36/65/44 33/58/15
f 18/30/33 17/29/45 27/44/24 28/47/23
f 17/29/45 19/31/46 29/50/31 27/44/24
f 20/32/34 18/30/33 28/47/23 30/52/26
f 21/33/35 20/32/34 30/52/26 31/54/28
f 58/106/36 21/33/35 31/54/28 56/101/32
f 23/37/47 22/34/48 32/56/16 33/58/15
f 22/35/48 24/39/49 34/60/38 32/57/16
f 24/40/49 25/41/50 35/64/41 34/61/38
f 26/42/51 23/38/47 33/59/15 36/66/44
f 59/107/52 26/42/51 36/66/44 57/104/42
f 15/23/6 2/3/3 38/70/21 41/75/30
f 55/99/53 15/24/6 41/76/30 60/109/29
f 6/8/19 13/17/18 40/72/27 39/71/25
f 1/1/2 6/8/19 39/71/25 37/68/22
f 2/3/3 1/2/2 37/69/22 38/70/21
f 3/4/7 15/25/6 46/84/43 42/77/14
f 13/18/18 5/7/11 44/80/37 45/82/40
f 55/98/53 13/19/18 45/83/40 61/111/39
f 5/7/11 4/5/9 43/78/13 44/80/37
f 4/6/9 3/4/7 42/77/14 43/79/13
f 62/112/54 48/88/4 54/96/5 68/121/55
f 65/116/56 51/92/12 53/94/17 67/119/57
f 66/117/58 52/93/20 47/86/1 69/123/59
f 67/118/57 53/95/17 52/93/20 66/117/58
f 64/115/60 50/90/10 51/92/12 65/116/56
f 63/113/61 49/89/8 50/91/10 64/114/60
f 68/120/55 54/97/5 49/89/8 63/113/61
f 69/122/59 47/87/1 48/88/4 62/112/54
f 15/26/6 55/98/53 61/111/39 46/85/43
f 13/20/18 55/99/53 60/109/29 40/73/27
f 25/41/50 59/107/52 57/104/42 35/64/41
f 19/31/46 58/106/36 56/101/32 29/50/31
f 46/85/43 61/111/39 57/105/42 36/67/44
f 40/73/27 60/109/29 56/102/32 31/55/28
f 26/42/51 59/107/52 22/36/48 23/38/47
f 17/29/45 18/30/33 58/106/36 19/31/46
f 7/9/62 69/122/59 62/112/54 8/11/63
f 16/27/64 68/120/55 63/113/61 9/12/65
f 9/12/65 63/113/61 64/114/60 10/13/66
f 10/14/66 64/115/60 65/116/56 11/15/67
f 14/21/68 67/118/57 66/117/58 12/16/69
f 12/16/69 66/117/58 69/123/59 7/10/62
f 11/15/67 65/116/56 67/119/57 14/22/68
f 8/11/63 62/112/54 68/121/55 16/28/64
f 59/107/52 25/41/50 24/40/49 22/36/48
f 108/198/70 109/199/71 71/126/72 70/125/73
f 115/208/74 110/200/75 72/127/76 77/138/77
f 110/200/75 111/202/78 73/129/79 72/127/76
f 111/201/78 112/203/80 74/130/81 73/128/79
f 104/190/82 93/167/83 94/169/84 103/188/85
f 114/206/86 113/204/87 75/131/88 76/132/89
f 113/204/87 108/197/70 70/124/73 75/131/88
f 112/203/80 114/205/86 76/133/89 74/130/81
f 109/199/71 115/207/74 77/136/77 71/126/72
f 99/181/90 88/154/91 89/156/92 98/180/93
f 98/179/93 89/157/92 91/162/94 100/182/95
f 100/182/95 91/162/94 92/164/96 101/183/97
f 121/219/98 117/211/99 90/159/100 102/185/101
f 102/186/101 90/160/100 88/154/91 99/181/90
f 79/141/102 119/217/103 82/144/104 81/143/105
f 105/191/106 95/171/107 93/168/83 104/189/82
f 122/221/108 118/214/109 96/173/110 106/192/111
f 106/193/111 96/174/110 95/171/107 105/191/106
f 103/188/85 94/169/84 97/176/112 107/195/113
f 79/141/102 89/158/92 88/155/91 78/140/114
f 78/140/114 88/155/91 90/161/100 80/142/115
f 81/143/105 91/163/94 89/158/92 79/141/102
f 82/144/104 92/165/96 91/163/94 81/143/105
f 119/217/103 117/212/99 92/165/96 82/144/104
f 84/148/116 94/169/84 93/167/83 83/145/117
f 83/146/117 93/168/83 95/171/107 85/150/118
f 85/151/118 95/172/107 96/175/110 86/152/119
f 87/153/120 97/177/112 94/170/84 84/149/116
f 120/218/121 118/215/109 97/177/112 87/153/120
f 77/136/77 102/186/101 99/181/90 71/126/72
f 116/210/122 121/220/98 102/187/101 77/137/77
f 75/131/88 100/182/95 101/183/97 76/132/89
f 70/124/73 98/179/93 100/182/95 75/131/88
f 71/126/72 99/181/90 98/180/93 70/125/73
f 72/127/76 103/188/85 107/195/113 77/138/77
f 76/133/89 106/193/111 105/191/106 74/130/81
f 116/209/122 122/222/108 106/194/111 76/134/89
f 74/130/81 105/191/106 104/189/82 73/128/79
f 73/129/79 104/190/82 103/188/85 72/127/76
f 123/223/123 129/232/124 115/207/74 109/199/71
f 126/227/125 128/230/126 114/205/86 112/203/80
f 127/228/127 130/234/128 108/197/70 113/204/87
f 128/229/126 127/228/127 113/204/87 114/206/86
f 125/226/129 126/227/125 112/203/80 111/201/78
f 124/224/130 125/225/129 111/202/78 110/200/75
f 129/231/124 124/224/130 110/200/75 115/208/74
f 130/233/128 123/223/123 109/199/71 108/198/70
f 77/139/77 107/196/113 122/222/108 116/209/122
f 76/135/89 101/184/97 121/220/98 116/210/122
f 86/152/119 96/175/110 118/215/109 120/218/121
f 80/142/115 90/161/100 117/212/99 119/217/103
f 107/196/113 97/178/112 118/216/109 122/222/108
f 101/184/97 92/166/96 117/213/99 121/220/98
f 87/153/120 84/149/116 83/147/117 120/218/121
f 78/140/114 80/142/115 119/217/103 79/141/102
f 7/9/62 8/11/63 123/223/123 130/233/128
f 16/27/64 9/12/65 124/224/130 129/231/124
f 9/12/65 10/13/66 125/225/129 124/224/130
f 10/14/66 11/15/67 126/227/125 125/226/129
f 14/21/68 12/16/69 127/228/127 128/229/126
f 12/16/69 7/10/62 130/234/128 127/228/127
f 11/15/67 14/22/68 128/230/126 126/227/125
f 8/11/63 16/28/64 129/232/124 123/223/123
f 120/218/121 83/147/117 85/151/118 86/152/119
