# Blender 3.5.1
# www.blender.org
mtllib Asset_01_trashbag_v001.mtl
o Trashbag
v -0.103281 -0.348296 0.103281
v -0.144795 0.269426 0.144795
v -0.103281 -0.348296 -0.103281
v -0.144795 0.269426 -0.144795
v 0.103281 -0.348296 0.103281
v 0.144795 0.269426 0.144795
v 0.103281 -0.348296 -0.103281
v 0.144795 0.269426 -0.144795
v -0.197373 -0.007357 0.197373
v -0.197373 -0.007357 -0.197373
v 0.197373 -0.007357 -0.197373
v 0.197373 -0.007357 0.197373
v -0.079241 0.162846 0.079241
v -0.079241 0.162846 -0.079241
v 0.079241 0.162846 -0.079241
v 0.079241 0.162846 0.079241
v 0.011727 0.158690 -0.012017
v -0.012234 0.158690 -0.012017
v -0.012234 0.158690 0.011943
v 0.011727 0.158690 0.011943
v -0.120234 -0.353573 0.000000
v -0.201711 0.269426 0.000000
v 0.120234 -0.353573 0.000000
v 0.201711 0.269426 0.000000
v 0.274958 -0.007357 0.000000
v -0.274958 -0.007357 0.000000
v 0.110389 0.162846 0.000000
v -0.110389 0.162846 0.000000
v 0.013350 0.158134 -0.000037
v -0.013858 0.158134 -0.000037
v -0.000000 -0.353573 -0.120234
v -0.000000 0.269426 -0.201711
v -0.000000 -0.353573 0.120234
v -0.000000 0.269426 0.201711
v -0.000000 -0.007357 0.274958
v -0.000000 -0.007357 -0.274958
v -0.000000 0.162846 0.110389
v -0.000000 0.162846 -0.110389
v -0.000254 0.158134 -0.013641
v -0.000254 0.158134 0.013567
v -0.000000 -0.364126 0.000000
v -0.305539 -0.257332 0.000000
v -0.219326 -0.257332 0.219326
v -0.000000 -0.257332 -0.305539
v -0.219326 -0.257332 -0.219326
v 0.305539 -0.257332 0.000000
v 0.219326 -0.257332 -0.219326
v -0.000000 -0.257332 0.305539
v 0.219326 -0.257332 0.219326
v -0.092928 0.169301 0.092928
v -0.092928 0.169301 -0.092928
v 0.092928 0.169301 -0.092928
v 0.092928 0.169301 0.092928
v 0.129457 0.169301 -0.000000
v -0.129457 0.169301 -0.000000
v -0.000000 0.169301 0.129457
v -0.000000 0.169301 -0.129457
v -0.092928 0.218455 0.092928
v -0.092928 0.218455 -0.092928
v 0.092928 0.218455 -0.092928
v 0.092928 0.218455 0.092928
v 0.129457 0.218455 -0.000000
v -0.129457 0.218455 -0.000000
v -0.000000 0.218455 0.129457
v -0.000000 0.218455 -0.129457
v -0.000000 0.197964 0.155936
v 0.111936 0.197964 0.111936
v 0.155936 0.197964 -0.000000
v 0.111936 0.197964 -0.111936
v -0.000000 0.197964 -0.155936
v -0.111936 0.197964 0.111936
v -0.111936 0.197964 -0.111936
v -0.155936 0.197964 -0.000000
v -0.089057 0.228006 0.089057
v -0.225735 -0.172582 -0.225735
v 0.225735 -0.172582 -0.225735
v 0.225735 -0.172582 0.225735
v -0.225735 -0.172582 0.225735
v -0.131371 0.103919 -0.131371
v 0.131371 0.103919 -0.131371
v 0.131371 0.103919 0.131371
v -0.131371 0.103919 0.131371
v -0.089057 0.228006 -0.089057
v 0.089057 0.228006 -0.089057
v 0.089057 0.228006 0.089057
v 0.095059 0.282394 -0.095059
v -0.095059 0.282394 -0.095059
v -0.095059 0.282394 0.095059
v 0.095059 0.282394 0.095059
v 0.130335 0.281983 0.000000
v -0.130335 0.281983 0.000000
v -0.183011 0.103919 0.000000
v 0.183011 0.103919 0.000000
v -0.314468 -0.172582 0.000000
v 0.314468 -0.172582 0.000000
v 0.124064 0.228006 0.000000
v -0.124064 0.228006 0.000000
v -0.000000 0.281983 0.130335
v -0.000000 0.281983 -0.130335
v -0.000000 0.103919 -0.183011
v -0.000000 0.103919 0.183011
v -0.000000 -0.172582 -0.314468
v -0.000000 -0.172582 0.314468
v -0.000000 0.228006 0.124064
v -0.000000 0.228006 -0.124064
v -0.235897 -0.318823 0.000000
v -0.171737 -0.318139 0.171737
v -0.000000 -0.318823 -0.235897
v -0.171737 -0.318139 -0.171737
v 0.235897 -0.318823 0.000000
v 0.171737 -0.318139 -0.171737
v -0.000000 -0.318823 0.235897
v 0.171737 -0.318139 0.171737
v -0.001877 0.157578 -0.000272
v 0.024628 0.223060 -0.024628
v -0.024628 0.223060 -0.024628
v -0.024628 0.223060 0.024628
v 0.024628 0.223060 0.024628
v 0.032690 0.222761 0.000000
v -0.032690 0.222761 0.000000
v -0.000000 0.222761 0.032690
v -0.000000 0.222761 -0.032690
v 0.046802 0.268735 -0.046802
v -0.046802 0.268735 -0.046802
v -0.046802 0.268735 0.046802
v 0.046802 0.268735 0.046802
v 0.063818 0.268469 0.000000
v -0.063818 0.268469 0.000000
v -0.000000 0.268469 0.063818
v -0.000000 0.268469 -0.063818
vn -0.0000 0.1284 -0.9917
vn 0.7014 0.1265 -0.7014
vn 0.5298 -0.6622 -0.5298
vn -0.0000 -0.6528 -0.7576
vn -0.7576 -0.6528 -0.0000
vn -0.5298 -0.6622 -0.5298
vn -0.6517 0.3882 -0.6517
vn -0.9249 0.3803 -0.0000
vn 0.9917 0.1284 -0.0000
vn 0.7014 0.1265 0.7014
vn 0.5298 -0.6622 0.5298
vn 0.7576 -0.6528 -0.0000
vn 0.6517 0.3882 -0.6517
vn -0.0000 0.3803 -0.9249
vn -0.0000 0.1284 0.9917
vn -0.7014 0.1265 0.7014
vn -0.5298 -0.6622 0.5298
vn -0.0000 -0.6528 0.7576
vn 0.6517 0.3882 0.6517
vn 0.9249 0.3803 -0.0000
vn -0.6517 0.3882 0.6517
vn -0.0000 0.3803 0.9249
vn 0.1980 -0.9802 -0.0000
vn 0.1649 -0.9724 0.1649
vn -0.0000 -0.9802 0.1980
vn -0.0000 -1.0000 -0.0000
vn -0.0000 0.4265 0.9045
vn -0.6387 0.4292 0.6387
vn -0.7057 0.0631 0.7057
vn -0.0000 0.0624 0.9980
vn 0.9045 0.4265 -0.0000
vn 0.6387 0.4292 0.6387
vn 0.7057 0.0631 0.7057
vn 0.9980 0.0624 -0.0000
vn -0.6400 -0.4251 0.6400
vn -0.0000 -0.4229 0.9062
vn -0.0000 0.4265 -0.9045
vn 0.6387 0.4292 -0.6387
vn 0.7057 0.0631 -0.7057
vn -0.0000 0.0624 -0.9980
vn 0.6400 -0.4251 0.6400
vn 0.9062 -0.4229 -0.0000
vn -0.9045 0.4265 -0.0000
vn -0.6387 0.4292 -0.6387
vn -0.7057 0.0631 -0.7057
vn -0.9980 0.0624 -0.0000
vn 0.6400 -0.4251 -0.6400
vn -0.0000 -0.4229 -0.9062
vn -0.5030 0.7029 0.5030
vn -0.0000 0.6988 0.7154
vn -0.6400 -0.4251 -0.6400
vn -0.9062 -0.4229 -0.0000
vn 0.5030 0.7029 0.5030
vn 0.7154 0.6988 -0.0000
vn 0.5030 0.7029 -0.5030
vn -0.0000 0.6988 -0.7154
vn -0.5030 0.7029 -0.5030
vn -0.7154 0.6988 -0.0000
vn -0.7014 0.1265 -0.7014
vn -0.0282 0.9992 -0.0282
vn -0.0000 0.9995 -0.0329
vn 0.3298 0.8845 0.3298
vn 0.6287 0.4573 0.6290
vn -0.0003 0.4254 0.9050
vn -0.0000 0.8694 0.4941
vn 0.9056 0.4241 -0.0000
vn 0.6285 0.4576 -0.6290
vn 0.5320 0.6597 -0.5309
vn 0.6426 0.7662 -0.0000
vn 0.3298 0.8845 -0.3298
vn 0.4941 0.8694 -0.0000
vn -0.0003 0.4259 -0.9048
vn -0.6282 0.4596 -0.6278
vn -0.5284 0.6639 -0.5292
vn -0.0000 0.7686 -0.6397
vn -0.3298 0.8845 -0.3298
vn -0.0000 0.8694 -0.4941
vn -0.9041 0.4273 -0.0000
vn -0.6284 0.4593 0.6279
vn -0.5286 0.6633 0.5297
vn -0.6376 0.7704 -0.0000
vn -0.3298 0.8845 0.3298
vn -0.4941 0.8694 -0.0000
vn 0.5322 0.6590 0.5314
vn 0.1649 -0.9724 -0.1649
vn -0.0000 -0.9802 -0.1980
vn -0.9917 0.1284 -0.0000
vn -0.1980 -0.9802 -0.0000
vn -0.1649 -0.9724 -0.1649
vn -0.0000 0.9995 0.0329
vn -0.0282 0.9992 0.0282
vn -0.0000 0.7680 0.6404
vn -0.1649 -0.9724 0.1649
vn -0.3734 -0.8492 0.3734
vn -0.5294 -0.8484 -0.0000
vn -0.3734 -0.8492 -0.3734
vn -0.0000 -0.8484 -0.5294
vn 0.3734 -0.8492 -0.3734
vn 0.5294 -0.8484 -0.0000
vn 0.3734 -0.8492 0.3734
vn -0.0000 -0.8484 0.5294
vn 0.0067 1.0000 0.0010
vn -0.0000 0.7909 -0.6120
vn 0.4287 0.7953 -0.4287
vn 0.7053 0.0707 -0.7053
vn -0.0000 0.0717 -0.9974
vn 0.6120 0.7909 -0.0000
vn 0.9974 0.0717 -0.0000
vn -0.0000 0.7909 0.6120
vn -0.4287 0.7953 0.4287
vn -0.7053 0.0707 0.7053
vn -0.0000 0.0717 0.9974
vn -0.4287 0.7953 -0.4287
vn -0.7053 0.0707 -0.7053
vn -0.6120 0.7909 -0.0000
vn -0.9974 0.0717 -0.0000
vn 0.4287 0.7953 0.4287
vn 0.7053 0.0707 0.7053
vn 0.5158 -0.6841 0.5158
vn 0.7345 -0.6786 -0.0000
vn -0.5158 -0.6841 -0.5158
vn -0.7345 -0.6786 -0.0000
vn -0.5158 -0.6841 0.5158
vn -0.0000 -0.6786 -0.7345
vn -0.0000 -0.6786 0.7345
vn 0.5158 -0.6841 -0.5158
vn 0.0282 0.9992 -0.0282
vn -0.0329 0.9995 -0.0000
vn 0.0329 0.9995 -0.0000
vn 0.0282 0.9992 0.0282
vt 0.398479 0.184367
vt 0.476234 0.101452
vt 0.846176 0.913186
vt 0.573603 0.735811
vt 0.484959 0.186385
vt 0.494580 0.766859
vt 0.780825 0.861541
vt 0.398479 0.270870
vt 0.476234 0.353785
vt 0.846176 0.726429
vt 0.604652 0.814855
vt 0.484959 0.268852
vt 0.780825 0.778075
vt 0.525629 0.845903
vt 0.601191 0.088167
vt 0.589896 0.184970
vt 0.589896 0.270267
vt 0.601191 0.367070
vt 0.856402 0.869439
vt 0.678216 0.118594
vt 0.821973 0.841792
vt 0.664382 0.190385
vt 0.664382 0.264852
vt 0.821973 0.797824
vt 0.678216 0.336643
vt 0.856402 0.770177
vt 0.041796 0.840699
vt 0.042734 0.841055
vt 0.042387 0.841991
vt 0.041442 0.841646
vt 0.441890 0.178042
vt 0.479858 0.143993
vt 0.527988 0.735785
vt 0.807572 0.894831
vt 0.441890 0.277195
vt 0.479858 0.311244
vt 0.807572 0.744785
vt 0.571244 0.845929
vt 0.593974 0.315221
vt 0.593974 0.140016
vt 0.664857 0.302486
vt 0.836301 0.780526
vt 0.836301 0.859090
vt 0.664857 0.152751
vt 0.041560 0.841150
vt 0.042620 0.841545
vt 0.487142 0.227618
vt 0.771519 0.819808
vt 0.494580 0.812484
vt 0.391143 0.227618
vt 0.450023 0.388798
vt 0.450023 0.066439
vt 0.887273 0.910863
vt 0.887273 0.728753
vt 0.604652 0.769230
vt 0.624191 0.017332
vt 0.624191 0.437905
vt 0.589608 0.227618
vt 0.879396 0.871146
vt 0.698747 0.087541
vt 0.698747 0.367696
vt 0.879396 0.768470
vt 0.817451 0.819808
vt 0.658375 0.227618
vt 0.042287 0.840818
vt 0.041892 0.841878
vt 0.440733 0.227618
vt 0.538962 0.138294
vt 0.535851 0.085798
vt 0.540563 0.227618
vt 0.540697 0.184256
vt 0.538962 0.316943
vt 0.540697 0.270981
vt 0.517100 0.446097
vt 0.517100 0.009139
vt 0.535851 0.369439
vt 0.812339 0.366674
vt 0.807601 0.426081
vt 0.807601 0.485691
vt 0.812339 0.545098
vt 0.811285 0.515297
vt 0.811285 0.396475
vt 0.816567 0.333315
vt 0.816567 0.578456
vt 0.808913 0.455886
vt 0.834710 0.369332
vt 0.830082 0.426978
vt 0.830082 0.484794
vt 0.834710 0.542439
vt 0.830017 0.513799
vt 0.830017 0.397973
vt 0.839675 0.336463
vt 0.839675 0.575309
vt 0.827703 0.455886
vt 0.829606 0.331680
vt 0.829606 0.580092
vt 0.824499 0.543810
vt 0.821479 0.514484
vt 0.819820 0.485203
vt 0.819141 0.455886
vt 0.824499 0.367962
vt 0.819820 0.426568
vt 0.821479 0.397288
vt 0.851473 0.887715
vt 0.556907 0.184241
vt 0.556907 0.270996
vt 0.557503 0.370839
vt 0.557504 0.084398
vt 0.627469 0.187279
vt 0.627469 0.267957
vt 0.644429 0.353069
vt 0.644429 0.102168
vt 0.805160 0.849853
vt 0.805160 0.789763
vt 0.851473 0.751901
vt 0.533990 0.826737
vt 0.023290 0.800255
vt 0.513754 0.775211
vt 0.083144 0.822570
vt 0.565242 0.754976
vt 0.060847 0.882419
vt 0.585478 0.806503
vt 0.000980 0.860126
vt 0.563478 0.826165
vt 0.000977 0.826032
vt 0.535754 0.755549
vt 0.083144 0.856647
vt 0.631221 0.145963
vt 0.631221 0.309274
vt 0.557502 0.137640
vt 0.557502 0.317597
vt 0.823196 0.764257
vt 0.823196 0.875358
vt 0.584883 0.776995
vt 0.026764 0.882429
vt 0.514349 0.804719
vt 0.057379 0.800262
vt 0.624523 0.227618
vt 0.672450 0.056229
vt 0.672450 0.399008
vt 0.556975 0.227618
vt 0.552352 0.001019
vt 0.552352 0.454218
vt 0.879416 0.889176
vt 0.879416 0.750440
vt 0.796611 0.819808
vt 0.518314 0.139965
vt 0.510919 0.090520
vt 0.521912 0.227618
vt 0.520095 0.184751
vt 0.518314 0.315272
vt 0.520095 0.270486
vt 0.485731 0.424372
vt 0.485731 0.030864
vt 0.510919 0.364717
vt 0.042152 0.841361
vt 0.038993 0.834617
vt 0.048788 0.838271
vt 0.045139 0.848064
vt 0.035340 0.844417
vt 0.035572 0.838923
vt 0.048551 0.843759
vt 0.039648 0.847833
vt 0.044484 0.834854
vt 0.032959 0.821416
vt 0.061988 0.832237
vt 0.051174 0.861264
vt 0.022140 0.850452
vt 0.021861 0.833814
vt 0.062265 0.848868
vt 0.034541 0.861545
vt 0.049595 0.821142
s 1
usemtl Assetv01
f 32/48/1 8/13/2 84/114/3 105/146/4
f 97/133/5 83/113/6 14/21/7 28/43/8
f 24/37/9 6/10/10 85/115/11 96/132/12
f 105/146/4 84/114/3 15/24/13 38/63/14
f 34/53/15 2/3/16 74/104/17 104/144/18
f 96/132/12 85/115/11 16/26/19 27/42/20
f 104/144/18 74/104/17 13/19/21 37/59/22
f 23/35/23 5/8/24 33/50/25 41/67/26
f 35/56/27 9/15/28 78/108/29 103/142/30
f 25/39/31 12/18/32 77/107/33 95/131/34
f 103/142/30 78/108/29 43/69/35 48/75/36
f 36/58/37 11/17/38 76/106/39 102/141/40
f 95/131/34 77/107/33 49/76/41 46/72/42
f 26/40/43 10/16/44 75/105/45 94/130/46
f 102/141/40 76/106/39 47/73/47 44/70/48
f 37/60/22 13/20/21 82/112/49 101/139/50
f 94/130/46 75/105/45 45/71/51 42/68/52
f 27/41/20 16/25/19 81/111/53 93/129/54
f 101/139/50 82/112/49 9/15/28 35/56/27
f 38/64/14 15/23/13 80/110/55 100/138/56
f 93/129/54 81/111/53 12/18/32 25/39/31
f 28/44/8 14/22/7 79/109/57 92/128/58
f 100/138/56 80/110/55 11/17/38 36/58/37
f 4/6/59 87/118/60 99/136/61 32/49/1
f 92/128/58 79/109/57 10/16/44 26/40/43
f 124/166/62 116/158/63 122/164/64 130/172/65
f 120/162/66 117/159/67 19/29/68 30/46/69
f 125/167/70 117/159/67 120/162/66 128/170/71
f 121/163/72 118/160/73 20/30/74 40/66/75
f 126/168/76 118/160/73 121/163/72 129/171/77
f 119/161/78 115/157/79 17/27/80 29/45/81
f 123/165/82 115/157/79 119/161/78 127/169/83
f 118/160/73 119/161/78 29/45/81 20/30/74
f 127/169/83 119/161/78 118/160/73 126/168/76
f 116/158/63 120/162/66 30/46/69 18/28/84
f 128/170/71 120/162/66 116/158/63 124/166/62
f 117/159/67 121/163/72 40/66/75 19/29/68
f 15/23/13 27/41/20 93/129/54 80/110/55
f 82/112/49 92/128/58 26/40/43 9/15/28
f 9/15/28 26/40/43 94/130/46 78/108/29
f 80/110/55 93/129/54 25/39/31 11/17/38
f 11/17/38 25/39/31 95/131/34 76/106/39
f 78/108/29 94/130/46 42/68/52 43/69/35
f 76/106/39 95/131/34 46/72/42 47/73/47
f 7/12/85 23/35/23 41/67/26 31/47/86
f 8/13/2 24/37/9 96/132/12 84/114/3
f 2/3/16 22/34/87 97/133/5 74/104/17
f 84/114/3 96/132/12 27/42/20 15/24/13
f 74/104/17 97/133/5 28/43/8 13/19/21
f 31/47/86 41/67/26 21/31/88 3/5/89
f 34/55/15 98/134/90 88/120/91 2/4/16
f 129/171/77 121/163/72 117/159/67 125/167/70
f 115/157/79 122/164/64 39/65/92 17/27/80
f 130/172/65 122/164/64 115/157/79 123/165/82
f 16/25/19 37/61/22 101/140/50 81/111/53
f 79/109/57 100/138/56 36/58/37 10/16/44
f 10/16/44 36/58/37 102/141/40 75/105/45
f 81/111/53 101/140/50 35/57/27 12/18/32
f 12/18/32 35/57/27 103/143/30 77/107/33
f 75/105/45 102/141/40 44/70/48 45/71/51
f 77/107/33 103/143/30 48/74/36 49/76/41
f 41/67/26 33/50/25 1/1/93 21/31/88
f 6/10/10 34/54/15 104/145/18 85/115/11
f 4/7/59 32/48/1 105/146/4 83/113/6
f 85/115/11 104/145/18 37/62/22 16/26/19
f 21/32/88 1/2/93 107/148/94 106/147/95
f 83/113/6 105/146/4 38/63/14 14/21/7
f 106/147/95 107/148/94 43/69/35 42/68/52
f 31/47/86 3/5/89 109/150/96 108/149/97
f 108/149/97 109/150/96 45/71/51 44/70/48
f 23/36/23 7/12/85 111/152/98 110/151/99
f 110/151/99 111/152/98 47/73/47 46/72/42
f 33/51/25 5/9/24 113/155/100 112/153/101
f 112/153/101 113/155/100 49/76/41 48/74/36
f 3/5/89 21/32/88 106/147/95 109/150/96
f 109/150/96 106/147/95 42/68/52 45/71/51
f 5/9/24 23/36/23 110/151/99 113/155/100
f 113/155/100 110/151/99 46/72/42 49/76/41
f 7/12/85 31/47/86 108/149/97 111/152/98
f 111/152/98 108/149/97 44/70/48 47/73/47
f 1/2/93 33/52/25 112/154/101 107/148/94
f 107/148/94 112/154/101 48/75/36 43/69/35
f 39/65/92 18/28/84 30/46/69 114/156/102
f 65/94/103 60/88/104 69/99/105 70/100/106
f 60/88/104 62/90/107 68/98/108 69/99/105
f 64/92/109 58/86/110 71/101/111 66/95/112
f 59/87/113 65/94/103 70/100/106 72/102/114
f 58/86/110 63/91/115 73/103/116 71/101/111
f 63/91/115 59/87/113 72/102/114 73/103/116
f 62/90/107 61/89/117 67/97/118 68/98/108
f 68/98/108 67/97/118 53/80/119 54/81/120
f 73/103/116 72/102/114 51/78/121 55/82/122
f 71/101/111 73/103/116 55/82/122 50/77/123
f 72/102/114 70/100/106 57/85/124 51/78/121
f 66/95/112 71/101/111 50/77/123 56/83/125
f 70/100/106 69/99/105 52/79/126 57/85/124
f 69/99/105 68/98/108 54/81/120 52/79/126
f 67/97/118 66/96/112 56/84/125 53/80/119
f 19/29/68 40/66/75 114/156/102 30/46/69
f 17/27/80 39/65/92 114/156/102 29/45/81
f 122/164/64 116/158/63 18/28/84 39/65/92
f 40/66/75 20/30/74 29/45/81 114/156/102
f 14/22/7 38/64/14 100/138/56 79/109/57
f 32/49/1 99/136/61 86/116/127 8/14/2
f 13/20/21 28/44/8 92/128/58 82/112/49
f 22/33/87 91/126/128 87/118/60 4/6/59
f 24/38/9 90/124/129 89/122/130 6/11/10
f 8/14/2 86/116/127 90/124/129 24/38/9
f 6/11/10 89/122/130 98/134/90 34/55/15
f 2/4/16 88/120/91 91/126/128 22/33/87
f 22/34/87 4/7/59 83/113/6 97/133/5
f 67/97/118 61/89/117 64/93/109 66/96/112
f 99/137/61 130/172/65 123/165/82 86/117/127
f 98/135/90 129/171/77 125/167/70 88/121/91
f 91/127/128 128/170/71 124/166/62 87/119/60
f 90/125/129 127/169/83 126/168/76 89/123/130
f 86/117/127 123/165/82 127/169/83 90/125/129
f 89/123/130 126/168/76 129/171/77 98/135/90
f 88/121/91 125/167/70 128/170/71 91/127/128
f 87/119/60 124/166/62 130/172/65 99/137/61
