# Blender 3.5.1
# www.blender.org
mtllib Asset_01_bucketthing_v001.mtl
o bucketthing
v 0.000000 -0.022412 -0.149038
v 0.000000 -0.022412 0.149038
v 0.129071 -0.022412 0.074519
v 0.129071 -0.022412 -0.074519
v 0.000000 0.283924 -0.251499
v 0.000000 0.283924 0.251499
v 0.217805 0.283924 0.125750
v 0.217805 0.283924 -0.125750
v 0.000000 0.329491 -0.251499
v 0.000000 0.329491 0.251499
v 0.217805 0.329491 0.125750
v 0.217805 0.329491 -0.125750
v 0.000000 0.283924 -0.214021
v 0.000000 0.283924 0.214021
v 0.185348 0.283924 0.107010
v 0.185348 0.283924 -0.107010
v 0.000000 0.329491 -0.196260
v 0.000000 0.329491 0.196260
v 0.169966 0.329491 0.098130
v 0.169966 0.329491 -0.098130
v 0.000000 0.028496 -0.126664
v 0.000000 0.028496 0.126664
v 0.109695 0.028496 0.063332
v 0.109695 0.028496 -0.063332
v 0.129080 0.082919 -0.079425
v 0.000000 0.082919 -0.158850
v 0.000000 0.082919 0.158850
v 0.129080 0.082919 0.079425
v 0.175059 0.329491 0.018826
v 0.212712 0.329491 0.018826
v 0.175059 0.329491 -0.018826
v 0.212712 0.329491 -0.018826
v 0.104271 0.480088 -0.018826
v 0.104271 0.480088 0.018826
v 0.130895 0.506712 0.018826
v 0.130895 0.506712 -0.018826
v 0.000000 0.512429 -0.018826
v 0.000000 0.512429 0.018826
v 0.000000 0.552558 0.018826
v 0.000000 0.552558 -0.018826
v -0.129071 -0.022412 0.074519
v -0.129071 -0.022412 -0.074519
v -0.217805 0.283924 0.125750
v -0.217805 0.283924 -0.125750
v -0.217805 0.329491 0.125750
v -0.217805 0.329491 -0.125750
v -0.185348 0.283924 0.107010
v -0.185348 0.283924 -0.107010
v -0.169966 0.329491 0.098130
v -0.169966 0.329491 -0.098130
v -0.109695 0.028496 0.063332
v -0.109695 0.028496 -0.063332
v -0.129080 0.082919 -0.079425
v -0.129080 0.082919 0.079425
v -0.175059 0.329491 0.018826
v -0.212712 0.329491 0.018826
v -0.175059 0.329491 -0.018826
v -0.212712 0.329491 -0.018826
v -0.104271 0.480088 -0.018826
v -0.104271 0.480088 0.018826
v -0.130895 0.506712 0.018826
v -0.130895 0.506712 -0.018826
vn 0.8472 -0.2075 -0.4891
vn -0.0000 -0.2075 -0.9782
vn -0.0000 -0.2075 0.9782
vn 0.8472 -0.2075 0.4891
vn -0.0000 -1.0000 -0.0000
vn 0.8660 -0.0000 0.5000
vn 0.8660 -0.0000 -0.5000
vn -0.0000 -0.0000 -1.0000
vn -0.0000 -0.0000 1.0000
vn -0.0000 1.0000 -0.0000
vn -0.8261 0.2938 0.4809
vn -0.0000 0.3090 0.9511
vn -0.0000 0.4819 0.8762
vn -0.8002 0.4270 0.4211
vn -0.0000 0.3090 -0.9511
vn -0.8261 0.2938 -0.4809
vn -0.8002 0.4270 -0.4211
vn -0.0000 0.4819 -0.8762
vn -0.8581 0.1735 -0.4833
vn -0.8581 0.1735 0.4833
vn -0.0000 0.1609 -0.9870
vn -0.0000 0.1609 0.9870
vn 0.3306 0.9438 -0.0000
vn 0.9079 0.4192 -0.0000
vn -0.9050 -0.4254 -0.0000
vn -0.2962 -0.9551 -0.0000
vn -0.8472 -0.2075 -0.4891
vn -0.8472 -0.2075 0.4891
vn -0.8660 -0.0000 0.5000
vn -0.8660 -0.0000 -0.5000
vn 0.8261 0.2938 0.4809
vn 0.8002 0.4270 0.4211
vn 0.8002 0.4270 -0.4211
vn 0.8261 0.2938 -0.4809
vn 0.8581 0.1735 -0.4833
vn 0.8581 0.1735 0.4833
vn -0.3306 0.9438 -0.0000
vn -0.9079 0.4192 -0.0000
vn 0.9050 -0.4254 -0.0000
vn 0.2962 -0.9551 -0.0000
vt 0.712969 0.742158
vt 0.816493 0.120980
vt 0.805343 0.742158
vt 0.724120 0.120980
vt 0.777557 0.708696
vt 0.744174 0.711513
vt 0.962142 0.461343
vt 0.456943 0.428485
vt 0.034284 0.198171
vt 0.757170 0.745707
vt 0.962142 0.240930
vt 0.456943 0.281543
vt 0.034284 0.418584
vt 0.757170 0.892649
vt 0.962142 0.314401
vt 0.393315 0.318278
vt 0.962142 0.387872
vt 0.393315 0.391749
vt 0.948830 0.461343
vt 0.126826 0.859680
vt 0.020973 0.198171
vt 0.729119 0.552423
vt 0.948830 0.240930
vt 0.339655 0.859335
vt 0.020973 0.418584
vt 0.725980 0.339576
vt 0.948830 0.314401
vt 0.275315 0.911598
vt 0.948830 0.387872
vt 0.188532 0.911598
vt 0.657861 0.664537
vt 0.456943 0.417536
vt 0.871601 0.043359
vt 0.757170 0.756655
vt 0.863778 0.650391
vt 0.456943 0.292491
vt 0.665685 0.029213
vt 0.757170 0.881700
vt 0.787967 0.622197
vt 0.402796 0.323753
vt 0.714532 0.632582
vt 0.402796 0.386275
vt 0.141685 0.854096
vt 0.734913 0.536917
vt 0.322648 0.852836
vt 0.732227 0.356047
vt 0.270006 0.894110
vt 0.194942 0.895682
vt 0.199475 0.784275
vt 0.803792 0.475688
vt 0.265250 0.786608
vt 0.798919 0.410135
vt 0.244895 0.809306
vt 0.221410 0.806510
vt 0.215093 0.819025
vt 0.184506 0.794413
vt 0.794136 0.491139
vt 0.280167 0.796264
vt 0.788852 0.395743
vt 0.250894 0.821318
vt 0.244366 0.612941
vt 0.776547 0.868607
vt 0.244366 0.601941
vt 0.965436 0.240930
vt 0.776547 0.879607
vt 0.233366 0.612941
vt 0.457511 0.798676
vt 0.233366 0.601941
vt 0.976436 0.240930
vt 0.457511 0.787677
vt 0.233366 0.661553
vt 0.413516 0.819356
vt 0.244366 0.661553
vt 0.732552 0.847928
vt 0.965436 0.297953
vt 0.724775 0.855706
vt 0.976436 0.297953
vt 0.405738 0.811578
vt 0.233366 0.693445
vt 0.404069 0.849817
vt 0.244366 0.693445
vt 0.723105 0.817467
vt 0.965436 0.338469
vt 0.711381 0.817467
vt 0.976436 0.338469
vt 0.392345 0.849817
vt 0.751905 0.087518
vt 0.785288 0.090334
vt 0.034284 0.345113
vt 0.693542 0.855913
vt 0.034284 0.271642
vt 0.693542 0.782442
vt 0.020973 0.345113
vt 0.675257 0.401701
vt 0.020973 0.271642
vt 0.675257 0.488711
vt 0.741495 0.001019
vt 0.703024 0.850439
vt 0.814930 0.011404
vt 0.703024 0.787917
vt 0.691133 0.407337
vt 0.692720 0.482475
vt 0.777114 0.431023
vt 0.780678 0.454367
vt 0.768356 0.461103
vt 0.764970 0.425433
vt 0.965436 0.447007
vt 0.244366 0.773949
vt 0.776547 0.766326
vt 0.965436 0.436008
vt 0.776547 0.755327
vt 0.976436 0.447007
vt 0.233366 0.773949
vt 0.457511 0.900957
vt 0.976436 0.436008
vt 0.457511 0.911957
vt 0.233366 0.725337
vt 0.413516 0.880278
vt 0.244366 0.725337
vt 0.732552 0.787006
vt 0.965436 0.378985
vt 0.724775 0.779228
vt 0.976436 0.378985
vt 0.405738 0.888056
s 1
usemtl Assetv01
f 4/6/1 1/1/2 13/31/2 16/41/1
f 2/3/3 3/5/4 15/39/4 14/35/3
f 3/5/4 4/6/1 16/41/1 15/39/4
s 0
f 1/1/5 4/6/5 3/5/5 2/3/5
s 1
f 7/15/6 8/17/7 12/29/7 11/27/6
f 8/17/7 5/7/8 9/19/8 12/29/7
f 6/11/9 7/15/6 11/27/6 10/23/9
s 0
f 7/16/5 6/12/5 14/36/5 15/40/5
f 8/18/5 7/16/5 15/40/5 16/42/5
f 5/8/5 8/18/5 16/42/5 13/32/5
f 12/30/10 9/20/10 17/43/10 20/48/10
f 10/24/10 11/28/10 19/47/10 18/45/10
f 11/28/10 12/30/10 20/48/10 19/47/10
s 1
f 25/55/11 26/56/12 21/49/13 24/54/14
f 27/58/15 28/60/16 23/53/17 22/51/18
f 28/60/16 25/55/11 24/54/14 23/53/17
s 0
f 21/49/10 22/51/10 23/53/10 24/54/10
s 1
f 19/47/19 20/48/20 25/55/11 28/60/16
f 18/45/21 19/47/19 28/60/16 27/58/15
f 20/48/20 17/43/22 26/56/12 25/55/11
s 0
f 29/61/5 31/66/5 32/68/5 30/63/5
f 35/75/23 36/77/23 40/85/23 39/83/23
f 30/64/24 32/69/24 36/77/24 35/75/24
f 31/66/25 29/61/25 34/73/25 33/71/25
f 32/70/8 31/67/8 33/72/8 36/78/8
f 29/62/9 30/65/9 35/76/9 34/74/9
f 33/71/26 34/73/26 38/81/26 37/79/26
f 36/78/8 33/72/8 37/80/8 40/86/8
f 34/74/9 35/76/9 39/84/9 38/82/9
s 1
f 42/88/27 48/99/27 13/33/2 1/2/2
f 2/4/3 14/37/3 47/97/28 41/87/28
f 41/87/28 47/97/28 48/99/27 42/88/27
s 0
f 1/2/5 2/4/5 41/87/5 42/88/5
s 1
f 43/89/29 45/93/29 46/95/30 44/91/30
f 44/91/30 46/95/30 9/21/8 5/9/8
f 6/13/9 10/25/9 45/93/29 43/89/29
s 0
f 43/90/5 47/98/5 14/38/5 6/14/5
f 44/92/5 48/100/5 47/98/5 43/90/5
f 5/10/5 13/34/5 48/100/5 44/92/5
f 46/96/10 50/102/10 17/44/10 9/22/10
f 10/26/10 18/46/10 49/101/10 45/94/10
f 45/94/10 49/101/10 50/102/10 46/96/10
s 1
f 53/105/31 52/104/32 21/50/13 26/57/12
f 27/59/15 22/52/18 51/103/33 54/106/34
f 54/106/34 51/103/33 52/104/32 53/105/31
s 0
f 21/50/10 52/104/10 51/103/10 22/52/10
s 1
f 49/101/35 54/106/34 53/105/31 50/102/36
f 18/46/21 27/59/15 54/106/34 49/101/35
f 50/102/36 53/105/31 26/57/12 17/44/22
s 0
f 55/107/5 56/110/5 58/115/5 57/112/5
f 61/121/37 39/83/37 40/85/37 62/123/37
f 56/110/38 61/121/38 62/123/38 58/115/38
f 57/113/39 59/117/39 60/119/39 55/108/39
f 58/116/8 62/124/8 59/118/8 57/114/8
f 55/109/9 60/120/9 61/122/9 56/111/9
f 59/117/40 37/79/40 38/81/40 60/119/40
f 62/124/8 40/86/8 37/80/8 59/118/8
f 60/120/9 38/82/9 39/84/9 61/122/9
