# Blender 3.5.1
# www.blender.org
mtllib walls_v001_bush.mtl
o bush_low
v -5.404917 0.006160 0.943967
v 0.000000 0.006160 0.943967
v -5.404917 1.100947 0.943967
v -5.404917 2.028489 0.471983
v -5.404917 1.592467 0.817187
v -5.404917 0.934893 1.060575
v 0.000000 1.911735 0.734446
v -5.404917 1.911735 0.734446
v 0.000000 2.028489 0.471983
v 0.000000 1.100947 0.943967
v 0.000000 1.592467 0.817187
v -5.404917 1.499572 0.985491
v 0.000000 0.934893 1.060575
v 0.000000 1.499572 0.985491
v -5.404917 2.438775 0.000000
v 0.000000 2.438775 0.000000
v -4.053704 0.006160 0.943967
v -2.702490 0.006160 0.943967
v -1.351276 0.006160 0.943967
v -4.080856 0.681889 1.144007
v -2.679531 1.028633 1.045969
v -1.334165 0.645991 1.144007
v -1.340887 1.652911 0.972472
v -2.648114 1.886580 0.774247
v -4.071993 1.675689 0.945086
v -4.103262 1.105331 1.231160
v -2.702490 1.499572 0.985491
v -1.355063 1.168158 1.231160
v -1.351276 2.028489 0.471983
v -2.702490 2.028489 0.471983
v -4.053704 2.028489 0.471983
v -4.053704 1.592467 0.817187
v -2.702490 1.592467 0.817187
v -1.351276 1.592467 0.817187
v -4.053704 1.100947 0.943967
v -2.702490 1.100947 0.943967
v -1.351276 1.100947 0.943967
v -1.351276 2.490100 0.000000
v -2.702490 2.541425 0.000000
v -4.053704 2.509347 0.000000
v -5.404917 2.091081 0.556122
v 0.000000 2.091081 0.556122
v -4.053704 2.091081 0.556122
v -2.702490 2.091081 0.556122
v -1.351276 2.091081 0.556122
v 0.000000 1.601910 0.886135
v -5.404917 1.601910 0.886135
v -1.351276 1.601910 0.886135
v -2.702490 1.601910 0.886135
v -4.053704 1.601910 0.886135
v -5.404917 1.097203 1.000499
v 0.000000 1.097203 1.000499
v -1.351276 1.097203 1.000499
v -2.702490 1.097203 1.000499
v -4.053704 1.097203 1.000499
vn -0.0003 0.6477 0.7619
vn 0.0070 0.6473 0.7622
vn 0.0140 0.5951 0.8036
vn 0.0009 0.5958 0.8031
vn 0.0092 0.7585 0.6516
vn 0.0064 0.7663 0.6425
vn 0.0158 0.8301 0.5573
vn 0.0154 0.8125 0.5827
vn -0.0028 0.3479 0.9375
vn 0.0010 0.3397 0.9405
vn 0.0020 0.3323 0.9432
vn -0.0048 0.3471 0.9378
vn -0.0022 0.3310 0.9436
vn 0.0026 0.3381 0.9411
vn 0.0046 0.3281 0.9446
vn -0.0044 0.3148 0.9491
vn -0.0007 0.3511 0.9363
vn 0.0030 0.3516 0.9361
vn -0.0088 0.7609 0.6488
vn -0.0091 0.7532 0.6577
vn -0.0153 0.8059 0.5919
vn -0.0215 0.8234 0.5670
vn 0.0008 0.7480 0.6637
vn 0.0028 0.7914 0.6112
vn -0.0041 0.6679 0.7442
vn -0.0000 0.6679 0.7443
vn -0.0000 0.6382 0.7699
vn -0.0083 0.6382 0.7698
vn -0.0014 0.6580 0.7530
vn -0.0028 0.6175 0.7866
vn -0.0000 -0.0000 1.0000
vn 0.0008 0.7014 0.7128
vn 0.0029 0.6983 0.7158
vn -0.0026 0.6948 0.7192
vn 0.0039 0.6901 0.7237
vn -0.0030 0.6936 0.7203
vn -0.0000 0.6966 0.7175
vn -0.0000 0.3471 0.9378
vt 0.282701 0.000000
vt 0.282701 0.475370
vt 0.189033 0.000001
vt 0.189033 0.475371
vt 0.370339 0.475370
vt 0.309119 0.475370
vt 0.066356 0.475973
vt 0.071317 0.000629
vt 0.189033 0.000002
vt 0.189033 0.475371
vt 0.370339 0.000000
vt 0.133316 0.475370
vt 0.309119 0.000000
vt 0.133316 0.000000
vt 0.011263 0.000000
vt 0.006302 0.475344
vt 0.282701 0.118841
vt 0.282701 0.237682
vt 0.282701 0.356523
vt 0.285773 0.358917
vt 0.317437 0.235668
vt 0.282701 0.117342
vt 0.094580 0.358329
vt 0.071750 0.243112
vt 0.094580 0.118112
vt 0.094580 0.360887
vt 0.133316 0.237688
vt 0.099955 0.119179
vt 0.189033 0.118848
vt 0.189033 0.237689
vt 0.189033 0.356530
vt 0.370339 0.356529
vt 0.370339 0.237688
vt 0.370339 0.118847
vt 0.189033 0.118842
vt 0.189033 0.237683
vt 0.189033 0.356524
vt 0.003151 0.356458
vt 0.000000 0.237578
vt 0.003985 0.118772
vt 0.052340 0.000431
vt 0.047379 0.475775
vt 0.051100 0.119265
vt 0.049859 0.238100
vt 0.048619 0.356934
vt 0.144097 0.000000
vt 0.144096 0.475370
vt 0.144097 0.118847
vt 0.144097 0.237688
vt 0.144097 0.356529
vt 0.324230 0.475370
vt 0.324230 0.000000
vt 0.324230 0.118847
vt 0.324230 0.237688
vt 0.324230 0.356529
s 1
usemtl Walls
f 50/50/1 47/47/2 12/12/3 26/26/4
f 45/45/5 42/42/6 16/16/7 38/38/8
f 55/55/9 51/51/10 6/6/11 20/20/12
f 52/52/13 53/53/14 22/22/15 13/13/16
f 53/53/14 54/54/17 21/21/18 22/22/15
f 54/54/17 55/55/9 20/20/12 21/21/18
f 41/41/19 43/43/20 40/40/21 15/15/22
f 43/43/20 44/44/23 39/39/24 40/40/21
f 44/44/23 45/45/5 38/38/8 39/39/24
f 46/46/25 48/48/26 28/28/27 14/14/28
f 48/48/26 49/49/29 27/27/30 28/28/27
f 49/49/29 50/50/1 26/26/4 27/27/30
f 17/17/31 35/35/31 3/3/31 1/1/31
f 2/2/31 10/10/31 37/37/31 19/19/31
f 19/19/31 37/37/31 36/36/31 18/18/31
f 24/24/32 23/23/33 45/45/5 44/44/23
f 25/25/34 24/24/32 44/44/23 43/43/20
f 8/8/35 25/25/34 43/43/20 41/41/19
f 23/23/33 7/7/36 42/42/6 45/45/5
f 30/30/37 31/31/37 50/50/1 49/49/29
f 29/29/37 30/30/37 49/49/29 48/48/26
f 9/9/37 29/29/37 48/48/26 46/46/25
f 31/31/37 4/4/37 47/47/2 50/50/1
f 33/33/38 32/32/38 55/55/9 54/54/17
f 34/34/38 33/33/38 54/54/17 53/53/14
f 11/11/38 34/34/38 53/53/14 52/52/13
f 32/32/38 5/5/38 51/51/10 55/55/9
f 18/18/31 36/36/31 35/35/31 17/17/31
