# Blender 3.5.1
# www.blender.org
mtllib banana.mtl
o banana
v 0.033252 1.138074 -0.064266
v 0.626262 0.684827 -0.032511
v 0.492106 -0.126513 -0.141076
v -0.335691 -0.198644 -0.223595
v -0.622076 0.651560 -0.287888
v 0.093252 1.218199 -1.334863
v 0.567069 0.821163 -1.255123
v 0.352405 0.244257 -1.389345
v -0.291585 0.274393 -1.265825
v -0.476904 0.820320 -1.085808
v 0.034070 1.450645 -2.012181
v 0.318286 1.251695 -2.068252
v 0.180973 0.926082 -2.037135
v -0.147380 0.929367 -2.121328
v -0.264616 1.226380 -1.896265
v 0.012179 1.550783 -2.166914
v 0.112699 1.562677 -2.321096
v 0.076979 1.542156 -2.402777
v -0.039476 1.524327 -2.321573
v -0.072099 1.538968 -2.218630
v 0.006606 1.877184 -2.217162
v 0.093813 1.876398 -2.303689
v 0.055563 1.847664 -2.359866
v -0.042703 1.855067 -2.383347
v -0.074495 1.870457 -2.285665
v 0.104851 1.236318 0.930643
v 0.670170 0.810291 0.930642
v 0.356471 0.201451 0.930643
v -0.281049 0.193291 0.930643
v -0.481525 0.810291 0.930643
v 0.039318 1.217283 1.370912
v 0.387421 0.976060 1.413272
v 0.228570 0.587163 1.453079
v -0.162246 0.575329 1.480786
v -0.308086 0.966129 1.384360
v 0.029833 1.257609 1.676750
v 0.144059 1.119325 1.669456
v 0.153112 0.990676 1.766009
v -0.014821 0.991099 1.767968
v -0.048330 1.165863 1.780715
vn -0.5296 -0.8476 -0.0330
vn -0.9703 0.2411 -0.0207
vn -0.9426 0.3169 -0.1051
vn -0.5695 -0.6859 -0.4531
vn 0.9611 0.2756 -0.0165
vn 0.5949 -0.8037 -0.0104
vn 0.5297 -0.6970 -0.4832
vn 0.9571 0.2575 -0.1329
vn -0.0067 0.9998 -0.0195
vn 0.0850 0.9715 0.2213
vn -0.5339 -0.4357 -0.7247
vn 0.4313 -0.5183 -0.7385
vn 0.9170 0.2826 -0.2815
vn 0.1081 0.8886 0.4458
vn -0.9027 0.4264 -0.0568
vn -0.9543 0.2741 0.1191
vn -0.5765 -0.1816 -0.7967
vn 0.3424 -0.1714 -0.9238
vn 0.9743 0.1401 -0.1766
vn 0.1224 0.6436 0.7555
vn 0.0929 0.6609 0.7447
vn -0.7663 0.6328 0.1110
vn -0.5573 0.4385 -0.7051
vn 0.3183 0.5518 -0.7709
vn 0.7585 0.6508 0.0342
vn -0.5393 -0.7313 0.4175
vn -0.9453 0.2825 0.1631
vn 0.9498 0.2421 0.1985
vn 0.5331 -0.7342 0.4205
vn 0.0458 0.9983 -0.0353
vn -0.4637 -0.5640 0.6833
vn -0.8941 0.3364 0.2956
vn 0.8643 0.3239 0.3847
vn 0.4521 -0.5706 0.6856
vn -0.0232 0.9997 0.0082
vn -0.3427 0.5415 0.7677
vn 0.0777 0.9512 0.2985
vn 0.4803 -0.1710 0.8603
vn -0.2560 -0.1998 0.9458
vn 0.7035 0.4565 0.5446
vt 0.416917 0.217820
vt 0.526157 0.265265
vt 0.278964 0.214350
vt 0.440250 0.274109
vt 0.690930 0.016125
vt 0.183722 0.204054
vt 0.168769 0.747285
vt 0.783634 0.000000
vt 0.000000 0.209676
vt 0.265010 0.747285
vt 0.100536 0.234998
vt 0.322505 0.242443
vt 0.517254 0.118075
vt 0.427244 0.364170
vt 0.446457 0.131867
vt 0.285968 0.080902
vt 0.709125 0.115488
vt 0.214451 0.071104
vt 0.783634 0.102272
vt 0.031270 0.336073
vt 0.100168 0.327151
vt 0.346924 0.335012
vt 0.436047 0.445324
vt 0.534560 0.037166
vt 0.322505 0.000000
vt 0.729732 0.253016
vt 0.494199 0.032963
vt 0.282236 0.006863
vt 0.739257 0.215822
vt 0.083927 0.443247
vt 0.776441 0.215320
vt 0.124295 0.424103
vt 0.392955 0.431517
vt 0.440250 0.464529
vt 0.542712 0.018052
vt 0.148228 0.457449
vt 0.986419 0.581506
vt 0.758172 0.294628
vt 0.533476 0.000000
vt 0.966122 0.577822
vt 0.761533 0.296112
vt 0.958097 0.581506
vt 0.774789 0.288338
vt 0.143563 0.475179
vt 0.431335 0.470977
vt 0.148010 0.464079
vt 0.183722 0.468908
vt 0.982468 0.545386
vt 0.754404 0.475380
vt 0.970058 0.543240
vt 0.741990 0.474652
vt 0.770014 0.325004
vt 0.964912 0.547813
vt 0.741466 0.466210
vt 0.781272 0.325426
vt 0.179257 0.487999
vt 0.745394 0.457336
vt 0.183664 0.477502
vt 0.754404 0.463567
vt 0.430549 0.104343
vt 0.534367 0.378104
vt 0.299409 0.320306
vt 0.452691 0.382974
vt 0.222137 0.328517
vt 0.172953 0.625080
vt 0.064727 0.084457
vt 0.245895 0.615987
vt 0.138412 0.097438
vt 0.346755 0.103532
vt 0.423207 0.054096
vt 0.542082 0.429064
vt 0.493653 0.436640
vt 0.312242 0.383581
vt 0.177944 0.548661
vt 0.264312 0.391905
vt 0.222645 0.541059
vt 0.114994 0.027126
vt 0.373649 0.052088
vt 0.160259 0.046539
vt 0.440250 0.000000
vt 0.542712 0.482068
vt 0.122513 0.958122
vt 0.527770 0.464529
vt 0.322505 0.420361
vt 0.308886 0.452192
vt 0.098643 0.976140
vt 0.177668 0.490753
vt 0.308897 0.430384
vt 0.322045 0.461282
vt 0.196825 0.487999
vt 0.163184 0.000000
vt 0.322045 0.446252
vt 0.411651 0.007106
vt 0.183722 0.001964
vt 0.320630 0.430384
vt 0.122513 0.987000
s 1
usemtl RottenFruits
f 4/9/1 5/11/2 10/21/3 9/20/4
f 2/3/5 3/6/6 8/18/7 7/16/8
f 5/12/2 1/1/9 6/14/10 10/22/3
f 3/5/6 4/8/1 9/19/4 8/17/7
f 1/2/9 2/4/5 7/15/8 6/13/10
f 8/17/7 9/19/4 14/31/11 13/29/12
f 6/13/10 7/15/8 12/27/13 11/24/14
f 9/20/4 10/21/3 15/32/15 14/30/11
f 7/16/8 8/18/7 13/28/12 12/25/13
f 10/22/3 6/14/10 11/23/14 15/33/15
f 14/30/11 15/32/15 20/46/16 19/44/17
f 12/26/13 13/29/12 18/41/18 17/38/19
f 15/33/15 11/23/14 16/34/20 20/45/16
f 13/29/12 14/31/11 19/43/17 18/41/18
f 11/24/14 12/27/13 17/39/19 16/35/20
f 20/46/16 16/36/20 21/47/21 25/58/22
f 18/41/18 19/43/17 24/55/23 23/52/24
f 16/37/20 17/40/19 22/50/25 21/48/21
f 19/44/17 20/46/16 25/58/22 24/56/23
f 17/40/19 18/42/18 23/53/24 22/50/25
f 22/51/25 23/54/24 24/57/23 25/59/22
f 21/49/21 22/51/25 25/59/22
f 5/11/2 4/9/1 29/66/26 30/68/27
f 3/6/6 2/3/5 27/62/28 28/64/29
f 1/1/9 5/12/2 30/69/27 26/60/30
f 4/10/1 3/7/6 28/65/29 29/67/26
f 2/4/5 1/2/9 26/61/30 27/63/28
f 30/68/27 29/66/26 34/77/31 35/79/32
f 28/64/29 27/62/28 32/73/33 33/75/34
f 26/60/30 30/69/27 35/78/32 31/70/35
f 29/67/26 28/65/29 33/74/34 34/76/31
f 27/63/28 26/61/30 31/71/35 32/72/33
f 31/70/35 35/78/32 40/93/36 36/80/37
f 34/76/31 33/74/34 38/87/38 39/90/39
f 32/72/33 31/71/35 36/81/37 37/83/40
f 35/79/32 34/77/31 39/91/39 40/94/36
f 33/75/34 32/73/33 37/84/40 38/88/38
f 40/95/36 39/92/39 38/89/38 37/85/40
f 40/96/36 37/86/40 36/82/37
