# Blender 3.5.1
# www.blender.org
mtllib orange.mtl
o orange
v -0.037180 0.016961 0.062308
v -0.146795 1.160872 0.180014
v -0.050337 0.033005 -0.075388
v -0.164244 1.153597 -0.272075
v 0.099183 0.032862 0.075688
v 0.347911 1.164479 0.171453
v 0.092894 0.035345 -0.068614
v 0.273611 1.149585 -0.245814
v -0.424926 0.881348 0.478219
v -0.455040 0.898114 -0.500815
v 0.492557 0.900652 -0.466497
v 0.561030 0.899484 0.483964
v -0.057503 0.017554 -0.043877
v -0.466925 0.425689 0.492794
v -0.647190 0.878752 -0.026256
v -0.489526 0.488644 -0.533304
v 0.008974 0.032527 -0.080708
v 0.018175 0.895425 -0.662308
v 0.515642 0.512111 -0.489946
v 0.104539 0.033303 0.015135
v 0.700092 0.898690 0.003603
v 0.563091 0.490038 0.514645
v 0.066381 0.022525 0.082173
v 0.108174 0.886702 0.691331
v -0.044215 1.091302 -0.157166
v 0.137021 1.058035 0.015766
v 0.159574 1.085306 -0.136326
v 0.016284 1.058152 0.002380
v -0.261002 1.157888 -0.037094
v 0.052590 1.154851 -0.350762
v 0.395097 1.159833 -0.032858
v 0.112770 1.169337 0.269070
v -0.300916 1.126948 0.341639
v -0.325583 1.115034 -0.382995
v 0.391801 1.110423 -0.360662
v 0.473444 1.124412 0.338027
v -0.685661 0.432791 -0.053806
v 0.016262 0.496998 -0.682981
v 0.709947 0.500894 0.008546
v 0.089114 0.443464 0.713065
v 0.023780 0.164743 -0.000496
v 0.155131 1.060093 -0.016631
v 0.092848 1.065900 0.048436
v 0.052508 1.061484 -0.135162
v -0.031247 1.062581 -0.047473
v -0.468881 1.117018 -0.018093
v 0.027349 1.112607 -0.506095
v 0.569743 1.118424 -0.015216
v 0.104831 1.123244 0.493796
v 0.195721 1.088828 0.065279
v 0.239782 1.103082 -0.022222
v 0.101910 1.055920 -0.085919
v 0.098442 1.110564 0.134442
v -0.032781 1.086900 0.062041
v 0.010941 1.063580 -0.102190
v 0.060615 1.105590 -0.229589
v -0.126181 1.104213 -0.040526
v 0.068500 1.040725 -0.040585
v -0.016727 1.121018 -0.130105
v 0.170995 1.112761 0.045520
v 0.083563 1.066645 -0.067096
v 0.033195 1.069166 -0.015143
v 0.125419 1.066841 -0.015642
v 0.088752 1.072042 0.020197
v 0.051110 1.068429 -0.100490
v 0.001740 1.070074 -0.047131
v 0.115201 1.069105 -0.000408
v 0.197959 1.115826 -0.002715
v 0.118718 1.109612 -0.105879
v 0.105226 1.124472 0.094164
v -0.008771 1.112935 0.025590
v 0.029770 1.074351 -0.080838
v 0.045163 1.117897 -0.179198
v -0.079541 1.119530 -0.048636
v -0.396490 0.176620 -0.427077
v -0.467936 0.077664 -0.031647
v -0.381227 0.097499 0.402691
v 0.428289 0.196244 -0.402821
v 0.018098 0.145584 -0.474292
v 0.451257 0.173839 0.421265
v 0.499885 0.141407 0.007208
v 0.052378 0.088260 0.491760
v 0.059380 0.028591 0.286966
v 0.302212 0.060554 0.011172
v 0.275220 0.076549 0.248477
v 0.013536 0.062254 -0.277500
v 0.260592 0.088994 -0.235717
v -0.209203 0.030429 0.232499
v -0.262720 0.020807 -0.037762
v -0.223414 0.078011 -0.251233
vn -0.4980 -0.7057 0.5040
vn -0.6929 -0.1895 0.6957
vn -0.9830 -0.1824 -0.0215
vn -0.6422 -0.7648 -0.0528
vn -0.6523 0.3351 0.6798
vn -0.9397 0.3413 0.0201
vn -0.6436 0.3547 -0.6783
vn -0.6568 -0.1825 -0.7317
vn -0.4686 -0.6714 -0.5742
vn 0.0365 -0.1838 -0.9823
vn 0.0402 -0.7204 -0.6924
vn 0.0279 0.3224 -0.9462
vn 0.6648 0.2983 -0.6848
vn 0.6914 -0.1906 -0.6969
vn 0.5335 -0.6543 -0.5360
vn 0.9788 -0.1991 -0.0471
vn 0.6888 -0.7237 -0.0419
vn 0.9598 0.2751 -0.0564
vn 0.7079 0.3152 0.6321
vn 0.7329 -0.2156 0.6452
vn 0.5639 -0.6787 0.4706
vn 0.0229 -0.2001 0.9795
vn 0.0450 -0.7582 0.6505
vn 0.0201 0.3366 0.9414
vn 0.1351 -0.9904 0.0287
vn 0.0145 -0.9731 0.2298
vn 0.0526 -0.9979 -0.0369
vn 0.2680 -0.9607 -0.0723
vn -0.0792 -0.9939 0.0767
vn -0.2393 -0.9709 -0.0093
vn -0.0545 -0.9918 -0.1156
vn 0.0542 -0.9668 -0.2496
vn 0.2080 -0.9620 -0.1771
vn -0.0787 0.8257 0.5586
vn 0.5350 0.6950 0.4804
vn 0.6522 0.5707 0.4989
vn 0.0684 0.5815 0.8107
vn 0.0163 0.9997 -0.0160
vn -0.0024 0.9994 -0.0335
vn -0.3812 0.9240 0.0303
vn -0.2675 0.9256 -0.2678
vn -0.0094 0.9998 -0.0152
vn -0.2793 0.9225 0.2663
vn 0.0212 0.9986 -0.0494
vn -0.0023 0.9984 -0.0557
vn -0.0124 0.9045 -0.4264
vn 0.2338 0.9182 -0.3199
vn 0.1470 0.8987 -0.4133
vn -0.5561 0.6582 -0.5075
vn -0.4864 0.6933 -0.5318
vn 0.0470 0.4997 -0.8649
vn 0.0121 0.9998 -0.0132
vn 0.2609 0.9265 0.2711
vn -0.0186 0.9262 0.3766
vn 0.0174 0.9998 -0.0097
vn -0.4818 0.8723 0.0829
vn -0.4421 0.7148 0.5419
vn -0.4594 0.6836 0.5672
vn -0.8652 0.4985 0.0541
vn 0.0208 0.9996 -0.0198
vn 0.3680 0.9295 -0.0246
vn 0.4986 0.8474 -0.1826
vn 0.5205 0.7313 -0.4409
vn 0.5015 0.7580 -0.4170
vn 0.8337 0.5508 -0.0407
vn -0.5853 0.8106 0.0178
vn -0.4021 0.8178 0.4116
vn -0.4037 0.8089 -0.4274
vn 0.0225 0.7921 -0.6100
vn 0.4343 0.7717 -0.4646
vn 0.6362 0.7679 -0.0754
vn 0.4774 0.7958 0.3726
vn 0.0085 0.8230 0.5680
vn -0.0132 0.9999 0.0080
vn -0.3076 0.9039 -0.2973
vn -0.5237 0.8417 0.1318
vn -0.3497 0.8490 0.3961
vn 0.3366 0.8716 -0.3565
vn 0.0519 0.8407 -0.5390
vn -0.0133 0.8763 0.4816
vn 0.3449 0.8759 0.3373
vn 0.4705 0.8824 0.0023
vn 0.2840 -0.9468 0.1515
vn 0.1013 -0.9792 0.1755
vn -0.1391 -0.9411 -0.3081
vn -0.1541 -0.9819 -0.1101
vn -0.1245 -0.9815 0.1453
vn 0.2388 -0.9394 -0.2458
vn 0.0274 -0.9559 -0.2925
vn 0.2837 -0.9585 -0.0296
vt 0.736266 0.461329
vt 0.847021 0.162443
vt 0.758888 0.373551
vt 0.846736 0.178532
vt 0.709935 0.391658
vt 0.271612 0.596640
vt 0.831393 0.159305
vt 0.780251 0.426303
vt 0.759079 0.469141
vt 0.830359 0.175972
vt 0.732465 0.436735
vt 0.846285 0.804233
vt 0.778747 0.326582
vt 0.445779 0.780842
vt 0.742176 0.802657
vt 0.890603 0.086392
vt 0.786533 0.087429
vt 0.261246 0.836068
vt 0.156958 0.833854
vt 0.553282 0.783193
vt 0.741466 0.457336
vt 0.848072 0.174895
vt 0.849363 0.751348
vt 0.440250 0.728169
vt 0.801411 0.800070
vt 0.714976 0.325426
vt 0.739897 0.755015
vt 0.894236 0.038842
vt 0.768039 0.472631
vt 0.839870 0.178394
vt 0.845845 0.084915
vt 0.783634 0.042399
vt 0.265010 0.791105
vt 0.754404 0.468648
vt 0.265413 0.599304
vt 0.830047 0.166194
vt 0.214814 0.834314
vt 0.154069 0.786426
vt 0.553336 0.735685
vt 0.272905 0.594424
vt 0.726301 0.468083
vt 0.835326 0.158900
vt 0.512175 0.779342
vt 0.727723 0.398288
vt 0.308886 0.463013
vt 0.754390 0.409265
vt 0.315911 0.461282
vt 0.739137 0.418822
vt 0.747524 0.397093
vt 0.265413 0.558196
vt 0.730611 0.371062
vt 0.711313 0.418100
vt 0.760612 0.440289
vt 0.780053 0.397179
vt 0.769244 0.349554
vt 0.454705 0.810651
vt 0.749494 0.829330
vt 0.690930 0.378922
vt 0.872559 0.112502
vt 0.793897 0.112502
vt 0.725634 0.453725
vt 0.246174 0.860413
vt 0.170422 0.860413
vt 0.803746 0.431567
vt 0.538760 0.810651
vt 0.799811 0.748200
vt 0.845508 0.038756
vt 0.215021 0.788261
vt 0.509464 0.728030
vt 0.837979 0.169921
vt 0.768039 0.457336
vt 0.272905 0.611613
vt 0.741466 0.477430
vt 0.266027 0.589047
vt 0.751748 0.412650
vt 0.320076 0.461282
vt 0.308886 0.469255
vt 0.755865 0.403266
vt 0.266193 0.548048
vt 0.271713 0.639282
vt 0.734490 0.407080
vt 0.266027 0.573100
vt 0.266193 0.565348
vt 0.740061 0.394347
vt 0.271713 0.652286
vt 0.794863 0.829330
vt 0.723361 0.347603
vt 0.693713 0.421672
vt 0.839284 0.111328
vt 0.770449 0.457336
vt 0.212797 0.860143
vt 0.803746 0.385653
vt 0.504817 0.808720
vt 0.762244 0.413752
vt 0.754872 0.422515
vt 0.741975 0.410033
vt 0.265413 0.580442
vt 0.765186 0.400730
vt 0.751610 0.389701
vt 0.736127 0.401253
vt 0.271605 0.644597
vt 0.724696 0.412809
vt 0.736434 0.384643
vt 0.558275 0.981043
vt 0.265413 0.642601
vt 0.557161 0.967011
vt 0.313900 0.461282
vt 0.313900 0.467588
vt 0.555352 0.996649
vt 0.554540 0.980070
vt 0.434518 0.661922
vt 0.562792 0.980510
vt 0.555070 0.987726
vt 0.560871 0.987890
vt 0.434208 0.669385
vt 0.554609 0.974690
vt 0.562902 0.975326
vt 0.557085 0.988219
vt 0.272303 0.594424
vt 0.320102 0.467588
vt 0.549265 0.994698
vt 0.271388 0.581612
vt 0.547899 0.979696
vt 0.313900 0.470576
vt 0.272568 0.544923
vt 0.564495 0.995626
vt 0.440250 0.674812
vt 0.271407 0.560032
vt 0.440250 0.659595
vt 0.568833 0.980799
vt 0.557846 0.974693
vt 0.265573 0.634687
vt 0.272303 0.570681
vt 0.548178 0.967718
vt 0.272568 0.570681
vt 0.265573 0.654048
vt 0.568833 0.968958
vt 0.747195 0.720327
vt 0.878776 0.003792
vt 0.880983 0.224265
vt 0.792739 0.709509
vt 0.894799 0.179063
vt 0.835828 0.714080
vt 0.444908 0.691350
vt 0.889894 0.128238
vt 0.788482 0.006656
vt 0.253047 0.754646
vt 0.786445 0.211261
vt 0.835649 0.000000
vt 0.833105 0.224265
vt 0.161573 0.750357
vt 0.536424 0.700219
vt 0.793907 0.116186
vt 0.209368 0.747285
vt 0.783634 0.162896
vt 0.495541 0.689470
vt 0.841281 0.112502
vt 0.838537 0.135514
vt 0.807074 0.164358
vt 0.812884 0.137559
vt 0.836721 0.201142
vt 0.808636 0.193429
vt 0.868691 0.145153
vt 0.871670 0.176792
vt 0.864094 0.201211
s 1
usemtl RottenFruits
f 77/143/1 14/23/2 37/66/3 76/141/4
f 14/23/2 9/12/5 15/25/6 37/66/3
f 37/66/3 15/25/6 10/15/7 16/27/8
f 76/141/4 37/66/3 16/27/8 75/138/9
f 75/139/9 16/28/8 38/67/10 79/149/11
f 16/28/8 10/16/7 18/31/12 38/67/10
f 38/67/10 18/31/12 11/17/13 19/32/14
f 79/149/11 38/67/10 19/32/14 78/146/15
f 78/147/15 19/33/14 39/68/16 81/154/17
f 19/33/14 11/18/13 21/37/18 39/68/16
f 39/68/16 21/37/18 12/19/19 22/38/20
f 81/154/17 39/68/16 22/38/20 80/151/21
f 80/152/21 22/39/20 40/69/22 82/156/23
f 22/39/20 12/20/19 24/43/24 40/69/22
f 40/69/22 24/43/24 9/14/5 14/24/2
f 82/156/23 40/69/22 14/24/2 77/144/1
f 3/4/25 17/30/26 41/70/27 13/22/28
f 17/29/26 7/9/29 20/34/30 41/71/27
f 41/72/27 20/35/30 5/6/31 23/40/32
f 13/21/28 41/73/27 23/41/32 1/1/33
f 43/77/34 26/45/35 60/107/36 70/124/37
f 6/8/38 31/53/39 51/95/40 50/94/41
f 8/11/42 27/48/43 51/95/40 31/53/39
f 2/3/44 32/54/45 53/98/46 54/99/47
f 6/8/38 50/94/41 53/98/46 32/54/45
f 44/80/48 55/101/49 59/105/50 73/132/51
f 4/5/52 25/44/53 56/102/54 30/52/55
f 45/83/56 28/50/57 71/128/58 74/135/59
f 8/11/42 30/52/55 56/102/54 27/48/43
f 4/5/52 29/51/60 57/103/61 25/44/53
f 2/3/44 54/99/47 57/103/61 29/51/60
f 42/74/62 52/97/63 69/122/64 68/119/65
f 2/3/44 29/51/60 46/87/66 33/55/67
f 29/51/60 4/5/52 34/58/68 46/87/66
f 46/86/66 34/57/68 10/15/7 15/25/6
f 33/55/67 46/87/66 15/26/6 9/13/5
f 4/5/52 30/52/55 47/88/69 34/58/68
f 30/52/55 8/11/42 35/61/70 47/88/69
f 47/89/69 35/60/70 11/17/13 18/31/12
f 34/59/68 47/89/69 18/31/12 10/16/7
f 8/11/42 31/53/39 48/90/71 35/61/70
f 31/53/39 6/8/38 36/64/72 48/90/71
f 48/91/71 36/63/72 12/19/19 21/37/18
f 35/62/70 48/91/71 21/37/18 11/18/13
f 6/8/38 32/54/45 49/92/73 36/64/72
f 32/54/45 2/3/44 33/55/67 49/92/73
f 49/93/73 33/56/67 9/14/5 24/43/24
f 36/65/72 49/93/73 24/43/24 12/20/19
f 42/75/62 26/46/35 50/94/41 51/95/40
f 52/96/63 42/75/62 51/95/40 27/48/43
f 26/46/35 43/78/34 53/98/46 50/94/41
f 43/78/34 28/49/57 54/99/47 53/98/46
f 55/100/49 44/81/48 56/102/54 25/44/53
f 44/81/48 52/96/63 27/48/43 56/102/54
f 28/49/57 45/84/56 57/103/61 54/99/47
f 45/84/56 55/100/49 25/44/53 57/103/61
f 58/104/74 67/118/75 63/113/76 61/110/77
f 58/104/74 62/112/78 64/114/79 67/118/75
f 58/104/74 61/110/77 65/116/80 72/131/81
f 58/104/74 72/131/81 66/117/82 62/112/78
f 26/47/35 42/76/62 68/120/65 60/108/36
f 55/101/49 45/85/56 74/136/59 59/105/50
f 52/97/63 44/82/48 73/133/51 69/122/64
f 28/50/57 43/79/34 70/125/37 71/128/58
f 63/113/76 67/118/75 60/109/36 68/121/65
f 61/110/77 63/113/76 68/121/65 69/123/64
f 67/118/75 64/114/79 70/126/37 60/109/36
f 64/115/79 62/111/78 71/129/58 70/127/37
f 72/131/81 65/116/80 73/134/51 59/106/50
f 65/116/80 61/110/77 69/123/64 73/134/51
f 62/112/78 66/117/82 74/137/59 71/130/58
f 66/117/82 72/131/81 59/106/50 74/137/59
f 23/42/32 5/7/31 85/160/83 83/158/84
f 90/165/85 89/164/86 76/142/4 75/140/9
f 89/164/86 88/163/87 77/145/1 76/142/4
f 87/162/88 86/161/89 79/150/11 78/148/15
f 86/161/89 90/165/85 75/140/9 79/150/11
f 85/160/83 84/159/90 81/155/17 80/153/21
f 84/159/90 87/162/88 78/148/15 81/155/17
f 88/163/87 83/158/84 82/157/23 77/145/1
f 3/4/25 13/22/28 89/164/86 90/165/85
f 13/22/28 1/2/33 88/163/87 89/164/86
f 7/10/29 17/30/26 86/161/89 87/162/88
f 17/30/26 3/4/25 90/165/85 86/161/89
f 5/7/31 20/36/30 84/159/90 85/160/83
f 20/36/30 7/10/29 87/162/88 84/159/90
f 1/2/33 23/42/32 83/158/84 88/163/87
f 83/158/84 85/160/83 80/153/21 82/157/23
