# Blender 3.5.1
# www.blender.org
mtllib pear.mtl
o pear
v 0.086861 2.594782 0.149869
v -0.013207 2.577665 0.152808
v -0.069280 1.191767 -0.023264
v -0.011212 2.176588 0.003554
v 0.083316 1.191767 0.113122
v 0.050327 2.176588 0.058555
v 0.126937 1.191767 -0.095210
v 0.067918 2.176588 -0.025461
v 0.044494 2.529216 0.217735
v 0.031034 2.789750 0.581144
v -0.082457 2.885044 0.453440
v 0.114364 2.918710 0.447660
v -0.315511 0.090541 0.302428
v -0.118627 2.021355 0.083022
v -0.292530 0.185801 -0.333744
v -0.114982 2.020115 -0.213167
v 0.375113 0.106645 0.303461
v 0.179343 2.019946 0.071677
v 0.361922 0.180042 -0.346074
v 0.185562 2.041867 -0.255752
v 0.036225 1.770213 -0.092620
v -0.298892 1.688752 0.259819
v -0.306124 1.691901 -0.430650
v 0.363537 1.677533 -0.407699
v 0.368551 1.673751 0.264462
v -0.436817 0.137313 -0.023845
v -0.419611 1.217015 0.421341
v -0.425900 1.694834 -0.074075
v -0.423347 1.247489 -0.508371
v 0.031635 0.209158 -0.455900
v 0.027434 1.689619 -0.552313
v 0.516329 1.211631 -0.548868
v 0.503894 0.141810 -0.027508
v 0.495288 1.682603 -0.067991
v 0.520141 1.186596 0.421831
v 0.028610 0.092267 0.438196
v 0.031652 1.671059 0.402968
v -0.041173 1.833838 -0.135544
v 0.115363 1.837851 -0.028008
v 0.118663 1.846404 -0.204850
v -0.043759 1.836494 0.010875
v -0.178546 2.027869 -0.056018
v 0.034847 2.045496 -0.305260
v 0.247418 2.041838 -0.093405
v 0.030293 2.023656 0.147125
v -0.197382 1.940935 0.150760
v -0.201467 1.943617 -0.312472
v 0.241962 1.935136 -0.267221
v 0.244327 1.927564 0.168822
v -0.595775 1.245200 -0.039681
v 0.040143 1.240830 -0.697096
v 0.697060 1.210700 -0.065019
v 0.043942 1.192778 0.620616
v 0.029325 0.047541 -0.016004
v 0.177281 1.876832 -0.127964
v 0.033644 1.865735 0.053725
v 0.035967 1.876027 -0.229218
v -0.095948 1.864503 -0.044651
v -0.285182 1.947077 -0.077769
v 0.023185 1.944248 -0.382506
v 0.329411 1.933682 -0.044605
v 0.026029 1.929299 0.253902
v -0.463429 0.640285 -0.516724
v -0.678454 0.607150 -0.018826
v -0.495149 0.555877 0.482809
v 0.564760 0.589621 -0.568680
v 0.042783 0.638224 -0.726040
v 0.580904 0.536451 0.479136
v 0.778980 0.562411 -0.048278
v 0.035808 0.549552 0.691406
vn 0.9400 -0.1491 0.3067
vn -0.3439 0.0458 -0.9379
vn 0.9778 0.0441 0.2047
vn -0.6663 0.0190 0.7455
vn -0.1370 0.6767 -0.7234
vn -0.7352 -0.2633 0.6246
vn -0.1971 0.3646 -0.9101
vn -0.1087 0.7480 0.6548
vn 0.9113 -0.3180 0.2617
vn -0.7971 -0.5043 0.3320
vn -0.7122 -0.1760 0.6795
vn -0.6822 0.2594 0.6836
vn -0.9730 0.2309 0.0076
vn -0.9857 -0.1655 -0.0309
vn -0.6427 0.4417 0.6260
vn -0.9099 0.4146 0.0095
vn -0.6406 0.4124 -0.6477
vn -0.7020 0.1861 -0.6874
vn -0.6852 -0.1976 -0.7011
vn -0.0226 0.1831 -0.9828
vn -0.0445 -0.2284 -0.9726
vn 0.0167 0.4332 -0.9011
vn 0.6292 0.4689 -0.6198
vn 0.6719 0.2242 -0.7059
vn 0.6474 -0.2459 -0.7214
vn 0.9672 0.2541 -0.0048
vn 0.9757 -0.2177 -0.0267
vn 0.8828 0.4698 -0.0034
vn 0.6372 0.4600 0.6183
vn 0.6904 0.2587 0.6755
vn 0.7059 -0.2051 0.6779
vn 0.0051 0.2586 0.9660
vn -0.0020 -0.1806 0.9836
vn -0.0011 0.4522 0.8919
vn -0.4369 -0.7268 -0.5300
vn -0.0431 -0.7337 -0.6781
vn 0.0039 -0.9921 -0.1255
vn 0.3803 -0.7729 -0.5079
vn 0.6134 -0.7869 -0.0678
vn 0.4493 -0.7957 0.4062
vn 0.0036 -0.7900 0.6131
vn -0.4680 -0.7893 0.3975
vn -0.0048 0.9993 0.0369
vn -0.5557 0.7235 -0.4095
vn -0.8314 0.5524 0.0607
vn -0.4322 0.6902 0.5804
vn -0.0004 0.9997 0.0256
vn 0.0992 0.9926 -0.0698
vn 0.1617 0.9790 -0.1238
vn 0.0050 1.0000 -0.0049
vn -0.0181 0.9986 0.0487
vn -0.0946 0.6323 -0.7689
vn 0.4307 0.7525 -0.4982
vn 0.0801 0.9960 0.0401
vn 0.5701 0.7016 0.4275
vn 0.1749 0.5495 0.8170
vn 0.1425 0.9857 -0.0899
vn 0.0324 0.9991 0.0281
vn 0.8058 0.5907 -0.0429
vn -0.7596 0.6504 0.0046
vn -0.5561 0.6283 0.5441
vn -0.5394 0.6532 -0.5314
vn 0.0339 0.6045 -0.7959
vn 0.6416 0.5328 -0.5517
vn 0.8013 0.5965 0.0465
vn 0.5381 0.6219 0.5689
vn -0.0046 0.6257 0.7801
vn -0.6544 -0.7488 -0.1052
vt 0.433982 0.710466
vt 0.856333 0.755148
vt 0.422602 0.712576
vt 0.894400 0.418304
vt 0.734148 0.647178
vt 0.912198 0.261090
vt 0.725083 0.756193
vt 0.890650 0.371994
vt 0.419487 0.756770
vt 0.890872 0.901169
vt 0.933656 0.267883
vt 0.856776 0.801164
vt 0.899304 0.374734
vt 0.710122 0.647178
vt 0.872490 0.911594
vt 0.715394 0.756193
vt 0.849363 0.805368
vt 0.429070 0.758411
vt 0.862627 0.757682
vt 0.905188 0.415715
vt 0.726301 0.457336
vt 0.890872 0.714493
vt 0.933656 0.449185
vt 0.411599 0.663747
vt 0.710802 0.466424
vt 0.912437 0.454276
vt 0.433982 0.659595
vt 0.726301 0.480534
vt 0.878491 0.709509
vt 0.627033 0.000000
vt 0.069459 0.800640
vt 0.055871 0.906292
vt 0.888914 0.698159
vt 0.636494 0.225647
vt 0.812134 0.485026
vt 0.286437 0.707754
vt 0.000528 0.772434
vt 0.966650 0.442902
vt 0.919295 0.708351
vt 0.061873 0.811137
vt 0.768720 0.708471
vt 0.096946 0.725586
vt 0.073506 0.934141
vt 0.780236 0.489575
vt 0.275451 0.781105
vt 0.025438 0.700903
vt 0.690930 0.481296
vt 0.933656 0.449566
vt 0.587832 0.416929
vt 0.035449 0.937590
vt 0.962272 0.478215
vt 0.916634 0.671900
vt 0.640035 0.182127
vt 0.051093 0.860456
vt 0.614291 0.374991
vt 0.543315 0.357516
vt 0.769241 0.537376
vt 0.275418 0.682195
vt 0.588026 0.010049
vt 0.028817 0.800640
vt 0.644150 0.123931
vt 0.021231 0.837050
vt 0.599523 0.187639
vt 0.552071 0.145453
vt 0.411599 0.708424
vt 0.040848 0.906292
vt 0.286900 0.747704
vt 0.000000 0.732263
vt 0.637274 0.398355
vt 0.092009 0.859180
vt 0.393331 0.814140
vt 0.644335 0.324160
vt 0.065956 0.698305
vt 0.739897 0.525902
vt 0.574986 0.359715
vt 0.542712 0.297183
vt 0.760344 0.598476
vt 0.660755 0.002113
vt 0.811653 0.709509
vt 0.097809 0.768630
vt 0.673492 0.181716
vt 0.811358 0.537448
vt 0.966650 0.467547
vt 0.919295 0.683846
vt 0.049415 0.938935
vt 0.040057 0.951229
vt 0.692896 0.457336
vt 0.946568 0.469632
vt 0.041731 0.921848
vt 0.904188 0.679045
vt 0.903973 0.707146
vt 0.619251 0.228300
vt 0.047606 0.800641
vt 0.946124 0.442618
vt 0.082170 0.811249
vt 0.596590 0.426846
vt 0.069882 0.951229
vt 0.710802 0.481296
vt 0.569175 0.409448
vt 0.765143 0.482068
vt 0.068961 0.915347
vt 0.799557 0.489613
vt 0.823596 0.495011
vt 0.637759 0.214171
vt 0.057315 0.827656
vt 0.591989 0.403581
vt 0.777979 0.504293
vt 0.000000 0.876507
vt 0.588368 0.133773
vt 0.098643 0.906292
vt 0.670423 0.357033
vt 0.408151 0.765568
vt 0.588853 0.301981
vt 0.820031 0.597611
vt 0.690930 0.123449
vt 0.049558 0.750831
vt 0.050529 0.950632
vt 0.703875 0.461387
vt 0.051299 0.925322
vt 0.953077 0.462952
vt 0.909457 0.686644
vt 0.037154 0.812281
vt 0.610000 0.218156
vt 0.609133 0.419441
vt 0.084303 0.825718
vt 0.758750 0.496940
vt 0.566398 0.393038
vt 0.661009 0.213805
vt 0.805048 0.503787
vt 0.542712 0.076288
vt 0.344665 0.698354
vt 0.331688 0.659595
vt 0.579085 0.059979
vt 0.639078 0.046825
vt 0.670423 0.260662
vt 0.323595 0.814140
vt 0.003794 0.667759
vt 0.341562 0.760908
vt 0.561491 0.228300
vt 0.118023 0.707768
vt 0.756003 0.671953
vt 0.611326 0.233128
vt 0.068779 0.665240
vt 0.690930 0.049084
vt 0.823596 0.669734
s 0
usemtl RottenFruits
f 6/12/1 8/17/1 1/2/1 9/19/1
f 3/5/2 4/7/2 8/16/2 7/14/2
f 7/15/3 8/17/3 6/12/3 5/10/3
f 5/11/4 6/13/4 4/8/4 3/6/4
f 1/1/5 2/3/5 11/24/5 12/27/5
f 4/8/6 6/13/6 9/20/6 2/4/6
f 8/18/7 4/9/7 2/3/7 1/1/7
f 12/28/8 11/25/8 10/21/8
f 9/19/9 1/2/9 12/29/9 10/22/9
f 2/4/10 9/20/10 10/23/10 11/26/10
s 1
f 65/134/11 27/61/12 50/109/13 64/133/14
f 27/61/12 22/53/15 28/63/16 50/109/13
f 50/108/13 28/62/16 23/54/17 29/66/18
f 64/133/14 50/109/13 29/64/18 63/130/19
f 63/131/19 29/65/18 51/112/20 67/138/21
f 29/66/18 23/54/17 31/70/22 51/110/20
f 51/111/20 31/69/22 24/55/23 32/72/24
f 67/138/21 51/112/20 32/71/24 66/136/25
f 66/135/25 32/72/24 52/113/26 69/142/27
f 32/72/24 24/55/23 34/75/28 52/113/26
f 52/113/26 34/75/28 25/56/29 35/76/30
f 69/142/27 52/113/26 35/76/30 68/139/31
f 68/141/31 35/77/30 53/114/32 70/145/33
f 35/77/30 25/57/29 37/82/34 53/114/32
f 53/115/32 37/81/34 22/53/15 27/61/12
f 70/144/33 53/115/32 27/61/12 65/134/11
f 15/37/35 30/68/36 54/116/37
f 19/46/38 33/73/39 54/116/37
f 54/116/37 33/73/39 17/42/40
f 54/116/37 36/80/41 13/31/42
f 21/50/43 39/85/44 55/117/45 40/86/46
f 18/43/47 44/97/48 55/117/45 39/85/44
f 20/47/49 40/87/46 55/118/45 44/98/48
f 14/32/50 45/101/51 56/119/52 41/89/53
f 18/43/47 39/85/44 56/119/52 45/101/51
f 21/50/43 41/89/53 56/119/52 39/85/44
f 16/38/54 38/83/55 57/120/56 43/94/57
f 21/51/43 40/88/46 57/120/56 38/83/55
f 20/48/49 43/94/57 57/120/56 40/88/46
f 16/39/54 42/91/58 58/121/59 38/84/55
f 14/33/50 41/90/53 58/121/59 42/91/58
f 21/52/43 38/84/55 58/121/59 41/90/53
f 14/34/50 42/92/58 59/123/60 46/104/61
f 42/93/58 16/40/54 47/105/62 59/122/60
f 59/122/60 47/105/62 23/54/17 28/62/16
f 46/104/61 59/123/60 28/63/16 22/53/15
f 16/40/54 43/95/57 60/125/63 47/105/62
f 43/96/57 20/49/49 48/106/64 60/124/63
f 60/124/63 48/106/64 24/55/23 31/69/22
f 47/105/62 60/125/63 31/70/22 23/54/17
f 20/49/49 44/99/48 61/127/65 48/106/64
f 44/100/48 18/44/47 49/107/66 61/126/65
f 61/126/65 49/107/66 25/57/29 34/74/28
f 48/106/64 61/127/65 34/75/28 24/55/23
f 18/44/47 45/102/51 62/129/67 49/107/66
f 45/102/51 14/35/50 46/103/61 62/129/67
f 62/128/67 46/104/61 22/53/15 37/81/34
f 49/107/66 62/129/67 37/82/34 25/57/29
f 15/36/35 26/58/68 64/132/14 63/131/19
f 26/59/68 13/30/42 65/134/11 64/133/14
f 19/45/38 30/67/36 67/138/21 66/136/25
f 30/67/36 15/36/35 63/131/19 67/138/21
f 17/42/40 33/73/39 69/143/27 68/140/31
f 33/73/39 19/46/38 66/137/25 69/143/27
f 13/30/42 36/78/41 70/144/33 65/134/11
f 36/79/41 17/41/40 68/141/31 70/145/33
f 26/60/68 54/116/37 13/31/42
f 26/60/68 15/37/35 54/116/37
f 36/80/41 54/116/37 17/42/40
f 30/68/36 19/46/38 54/116/37
